{
	"asset":{
		"generator":"Khronos glTF Blender I/O v4.3.47",
		"version":"2.0"
	},
	"extensionsUsed":[
		"KHR_materials_emissive_strength"
	],
	"scene":0,
	"scenes":[
		{
			"name":"Scene",
			"nodes":[
				33
			]
		}
	],
	"nodes":[
		{
			"mesh":0,
			"name":"SM_Warp",
			"rotation":[
				0.4999999701976776,
				-0.4999999701976776,
				-0.5,
				0.5
			]
		},
		{
			"children":[
				0
			],
			"name":"Goal"
		},
		{
			"name":"Platforms"
		},
		{
			"name":"SM_Ramp_Ladder"
		},
		{
			"children":[
				3
			],
			"name":"Ramps"
		},
		{
			"name":"Moving Platforms"
		},
		{
			"name":"Moving_platform"
		},
		{
			"name":"Cardboard.001"
		},
		{
			"name":"Cat_House.002"
		},
		{
			"name":"Platform.003"
		},
		{
			"name":"Ramp.003"
		},
		{
			"name":"Scratch_Post.002"
		},
		{
			"name":"Trim.003"
		},
		{
			"children":[
				6,
				7,
				8,
				9,
				10,
				11,
				12
			],
			"name":"LV_1_Greybox"
		},
		{
			"name":"cardboard"
		},
		{
			"name":"Platform.002"
		},
		{
			"name":"Scratch_Post.001"
		},
		{
			"children":[
				14,
				15,
				16
			],
			"name":"LV_2_Greybox"
		},
		{
			"name":"Tunnel.001"
		},
		{
			"name":"Cat_House.001"
		},
		{
			"name":"Ramp.001"
		},
		{
			"name":"Trim.001"
		},
		{
			"children":[
				18,
				19,
				20,
				21
			],
			"name":"LV_3_Greybox"
		},
		{
			"name":"Cardboard"
		},
		{
			"name":"Goal_Post.001"
		},
		{
			"name":"Ramp"
		},
		{
			"name":"ScratchPosts"
		},
		{
			"children":[
				23,
				24,
				25,
				26
			],
			"name":"LV_4_Greybox"
		},
		{
			"name":"Tunnel.002"
		},
		{
			"name":"Trims.001"
		},
		{
			"name":"Ramps.001"
		},
		{
			"name":"Goal_Post"
		},
		{
			"children":[
				28,
				29,
				30,
				31
			],
			"name":"LV_5_Greybox"
		},
		{
			"children":[
				1,
				2,
				4,
				5,
				13,
				17,
				22,
				27,
				32
			],
			"name":"Scene Collection"
		}
	],
	"materials":[
		{
			"doubleSided":true,
			"emissiveFactor":[
				1,
				1,
				1
			],
			"emissiveTexture":{
				"index":0
			},
			"extensions":{
				"KHR_materials_emissive_strength":{
					"emissiveStrength":3
				}
			},
			"name":"M_Goal_Tree",
			"normalTexture":{
				"index":1,
				"scale":0.30000001192092896
			},
			"pbrMetallicRoughness":{
				"baseColorTexture":{
					"index":2
				},
				"metallicFactor":0
			}
		},
		{
			"doubleSided":true,
			"emissiveFactor":[
				0.5,
				0.5,
				0.5
			],
			"emissiveTexture":{
				"index":3
			},
			"name":"TD_Checker",
			"normalTexture":{
				"index":4,
				"scale":0.30000001192092896
			},
			"pbrMetallicRoughness":{
				"baseColorTexture":{
					"index":5
				},
				"metallicFactor":0,
				"roughnessFactor":0.5
			}
		}
	],
	"meshes":[
		{
			"name":"SM_Goal_Base.006",
			"primitives":[
				{
					"attributes":{
						"POSITION":0,
						"NORMAL":1,
						"TEXCOORD_0":2
					},
					"indices":3,
					"material":0
				},
				{
					"attributes":{
						"POSITION":4,
						"NORMAL":5,
						"TEXCOORD_0":6
					},
					"indices":7,
					"material":1
				}
			]
		}
	],
	"textures":[
		{
			"sampler":0,
			"source":0
		},
		{
			"sampler":0,
			"source":1
		},
		{
			"sampler":0,
			"source":2
		},
		{
			"sampler":0,
			"source":3
		},
		{
			"sampler":0,
			"source":4
		},
		{
			"sampler":0,
			"source":5
		}
	],
	"images":[
		{
			"mimeType":"image/png",
			"name":"M_Goal_Tree_Emission",
			"uri":"M_Goal_Tree_Emission.png"
		},
		{
			"mimeType":"image/png",
			"name":"M_Goal_Tree_Normal",
			"uri":"M_Goal_Tree_Normal.png"
		},
		{
			"mimeType":"image/png",
			"name":"M_Goal_Tree_BaseColor",
			"uri":"M_Goal_Tree_BaseColor.png"
		},
		{
			"mimeType":"image/png",
			"name":"TD_Checker_Emission",
			"uri":"TD_Checker_Emission.png"
		},
		{
			"mimeType":"image/png",
			"name":"TD_Checker_Normal",
			"uri":"TD_Checker_Normal.png"
		},
		{
			"mimeType":"image/png",
			"name":"TD_Checker_BaseColor",
			"uri":"TD_Checker_BaseColor.png"
		}
	],
	"accessors":[
		{
			"bufferView":0,
			"componentType":5126,
			"count":120,
			"max":[
				-4.614708423614502,
				0.49234992265701294,
				-0.024539530277252197
			],
			"min":[
				-7.6111040115356445,
				-0.5217568278312683,
				-0.25201183557510376
			],
			"type":"VEC3"
		},
		{
			"bufferView":1,
			"componentType":5126,
			"count":120,
			"type":"VEC3"
		},
		{
			"bufferView":2,
			"componentType":5126,
			"count":120,
			"type":"VEC2"
		},
		{
			"bufferView":3,
			"componentType":5123,
			"count":228,
			"type":"SCALAR"
		},
		{
			"bufferView":4,
			"componentType":5126,
			"count":352,
			"max":[
				-0.05591818690299988,
				3.299999952316284,
				0.3487645387649536
			],
			"min":[
				-7.74885892868042,
				-3.299999475479126,
				-0.5512357354164124
			],
			"type":"VEC3"
		},
		{
			"bufferView":5,
			"componentType":5126,
			"count":352,
			"type":"VEC3"
		},
		{
			"bufferView":6,
			"componentType":5126,
			"count":352,
			"type":"VEC2"
		},
		{
			"bufferView":7,
			"componentType":5123,
			"count":972,
			"type":"SCALAR"
		}
	],
	"bufferViews":[
		{
			"buffer":0,
			"byteLength":1440,
			"byteOffset":0,
			"target":34962
		},
		{
			"buffer":0,
			"byteLength":1440,
			"byteOffset":1440,
			"target":34962
		},
		{
			"buffer":0,
			"byteLength":960,
			"byteOffset":2880,
			"target":34962
		},
		{
			"buffer":0,
			"byteLength":456,
			"byteOffset":3840,
			"target":34963
		},
		{
			"buffer":0,
			"byteLength":4224,
			"byteOffset":4296,
			"target":34962
		},
		{
			"buffer":0,
			"byteLength":4224,
			"byteOffset":8520,
			"target":34962
		},
		{
			"buffer":0,
			"byteLength":2816,
			"byteOffset":12744,
			"target":34962
		},
		{
			"buffer":0,
			"byteLength":1944,
			"byteOffset":15560,
			"target":34963
		}
	],
	"samplers":[
		{
			"magFilter":9729,
			"minFilter":9987
		}
	],
	"buffers":[
		{
			"byteLength":17504,
			"uri":"SM_Warp_Highpoly.bin"
		}
	]
}
