{
	"asset":{
		"generator":"Khronos glTF Blender I/O v4.3.47",
		"version":"2.0"
	},
	"scene":0,
	"scenes":[
		{
			"name":"Scene",
			"nodes":[
				0,
				1,
				2,
				3
			]
		}
	],
	"nodes":[
		{
			"mesh":0,
			"name":"LevelGeo1-col",
			"scale":[
				5.455589771270752,
				1,
				5.455589771270752
			]
		},
		{
			"mesh":1,
			"name":"RotatingPlatform",
			"rotation":[
				0,
				0.28324422240257263,
				0,
				0.9590478539466858
			],
			"scale":[
				5.455589771270752,
				1,
				5.455589771270752
			],
			"translation":[
				21.394224166870117,
				-35.68467712402344,
				24.037412643432617
			]
		},
		{
			"mesh":2,
			"name":"LevelGeo2-col",
			"scale":[
				5.455589771270752,
				1,
				12.784536361694336
			],
			"translation":[
				21.394224166870117,
				-35.68467712402344,
				62.11463165283203
			]
		},
		{
			"mesh":1,
			"name":"RotatingPlatform.001",
			"rotation":[
				0,
				0.28324422240257263,
				0,
				0.9590478539466858
			],
			"scale":[
				5.455589771270752,
				1,
				5.455589771270752
			],
			"translation":[
				21.394224166870117,
				-35.68467712402344,
				100.74177551269531
			]
		}
	],
	"materials":[
		{
			"doubleSided":true,
			"name":"Material.001",
			"pbrMetallicRoughness":{
				"baseColorFactor":[
					0.8001724481582642,
					0.1250903308391571,
					0.21328353881835938,
					1
				],
				"metallicFactor":0,
				"roughnessFactor":0.5
			}
		}
	],
	"meshes":[
		{
			"name":"LevelGeo1",
			"primitives":[
				{
					"attributes":{
						"POSITION":0,
						"NORMAL":1,
						"TEXCOORD_0":2
					},
					"indices":3,
					"material":0
				}
			]
		},
		{
			"name":"RotatingPlatform",
			"primitives":[
				{
					"attributes":{
						"POSITION":4,
						"NORMAL":5,
						"TEXCOORD_0":6
					},
					"indices":7,
					"material":0
				}
			]
		},
		{
			"name":"LevelGeo2",
			"primitives":[
				{
					"attributes":{
						"POSITION":8,
						"NORMAL":9,
						"TEXCOORD_0":10
					},
					"indices":7,
					"material":0
				}
			]
		}
	],
	"accessors":[
		{
			"bufferView":0,
			"componentType":5126,
			"count":84,
			"max":[
				6.843047142028809,
				4.844735145568848,
				1
			],
			"min":[
				-1,
				-36.68467712402344,
				-9.317296981811523
			],
			"type":"VEC3"
		},
		{
			"bufferView":1,
			"componentType":5126,
			"count":84,
			"type":"VEC3"
		},
		{
			"bufferView":2,
			"componentType":5126,
			"count":84,
			"type":"VEC2"
		},
		{
			"bufferView":3,
			"componentType":5123,
			"count":156,
			"type":"SCALAR"
		},
		{
			"bufferView":4,
			"componentType":5126,
			"count":24,
			"max":[
				2.9215235710144043,
				1,
				0.7877209186553955
			],
			"min":[
				-2.9215235710144043,
				-1,
				-0.7877209186553955
			],
			"type":"VEC3"
		},
		{
			"bufferView":5,
			"componentType":5126,
			"count":24,
			"type":"VEC3"
		},
		{
			"bufferView":6,
			"componentType":5126,
			"count":24,
			"type":"VEC2"
		},
		{
			"bufferView":7,
			"componentType":5123,
			"count":36,
			"type":"SCALAR"
		},
		{
			"bufferView":8,
			"componentType":5126,
			"count":24,
			"max":[
				2.9215235710144043,
				1,
				0.7877209186553955
			],
			"min":[
				-2.9215235710144043,
				-1,
				-0.7877209186553955
			],
			"type":"VEC3"
		},
		{
			"bufferView":9,
			"componentType":5126,
			"count":24,
			"type":"VEC3"
		},
		{
			"bufferView":10,
			"componentType":5126,
			"count":24,
			"type":"VEC2"
		}
	],
	"bufferViews":[
		{
			"buffer":0,
			"byteLength":1008,
			"byteOffset":0,
			"target":34962
		},
		{
			"buffer":0,
			"byteLength":1008,
			"byteOffset":1008,
			"target":34962
		},
		{
			"buffer":0,
			"byteLength":672,
			"byteOffset":2016,
			"target":34962
		},
		{
			"buffer":0,
			"byteLength":312,
			"byteOffset":2688,
			"target":34963
		},
		{
			"buffer":0,
			"byteLength":288,
			"byteOffset":3000,
			"target":34962
		},
		{
			"buffer":0,
			"byteLength":288,
			"byteOffset":3288,
			"target":34962
		},
		{
			"buffer":0,
			"byteLength":192,
			"byteOffset":3576,
			"target":34962
		},
		{
			"buffer":0,
			"byteLength":72,
			"byteOffset":3768,
			"target":34963
		},
		{
			"buffer":0,
			"byteLength":288,
			"byteOffset":3840,
			"target":34962
		},
		{
			"buffer":0,
			"byteLength":288,
			"byteOffset":4128,
			"target":34962
		},
		{
			"buffer":0,
			"byteLength":192,
			"byteOffset":4416,
			"target":34962
		}
	],
	"buffers":[
		{
			"byteLength":4608,
			"uri":"greybox.bin"
		}
	]
}
