{
	"asset":{
		"generator":"Khronos glTF Blender I/O v4.3.47",
		"version":"2.0"
	},
	"scene":0,
	"scenes":[
		{
			"name":"Scene",
			"nodes":[
				0,
				1,
				2,
				3,
				4,
				5,
				6,
				7,
				8,
				9,
				10,
				11,
				12,
				13,
				14,
				15,
				16,
				17,
				18,
				19
			]
		}
	],
	"nodes":[
		{
			"mesh":0,
			"name":"SM_Ramp_A-convcol"
		},
		{
			"mesh":1,
			"name":"SM_Platform_B-convcol.001"
		},
		{
			"mesh":2,
			"name":"SM_Platform_A-convcol.002"
		},
		{
			"mesh":3,
			"name":"Cat_Tree-convcol"
		},
		{
			"name":"Cardbox_1-convcol"
		},
		{
			"mesh":4,
			"name":"AM_Moving_Platform_A-convcol",
			"translation":[
				2.6525039672851562,
				3.335825204849243,
				0.046205051243305206
			]
		},
		{
			"mesh":5,
			"name":"SM_Ramp_A-convcol.001"
		},
		{
			"mesh":6,
			"name":"SM_Ramp_A-convcol.002"
		},
		{
			"mesh":7,
			"name":"SM_Ramp_A-convcol.003"
		},
		{
			"mesh":8,
			"name":"SM_Ramp_A-convcol.004"
		},
		{
			"mesh":9,
			"name":"SM_Ramp_A-convcol.005"
		},
		{
			"mesh":10,
			"name":"AM_Moving_Platform_A-convcol.001",
			"translation":[
				2.6525039672851562,
				3.335825204849243,
				0.046205051243305206
			]
		},
		{
			"mesh":11,
			"name":"AM_Moving_Platform_A-convcol.002",
			"translation":[
				2.6525039672851562,
				3.335825204849243,
				0.046205051243305206
			]
		},
		{
			"mesh":12,
			"name":"Cardbox_1-convcol.001"
		},
		{
			"mesh":13,
			"name":"Cardbox_1-convcol.002"
		},
		{
			"mesh":14,
			"name":"Cardbox_1-convcol.003"
		},
		{
			"mesh":15,
			"name":"Cardbox_1-convcol.004"
		},
		{
			"mesh":16,
			"name":"Cardbox_1-convcol.005"
		},
		{
			"mesh":17,
			"name":"Cardbox_1-convcol.006"
		},
		{
			"mesh":18,
			"name":"Cardbox_1-convcol.007"
		}
	],
	"meshes":[
		{
			"name":"SM_Ramp_A-convcol",
			"primitives":[
				{
					"attributes":{
						"POSITION":0,
						"NORMAL":1,
						"TEXCOORD_0":2
					},
					"indices":3
				}
			]
		},
		{
			"name":"SM_Platform_B-convcol.001",
			"primitives":[
				{
					"attributes":{
						"POSITION":4,
						"NORMAL":5,
						"TEXCOORD_0":6
					},
					"indices":7
				}
			]
		},
		{
			"name":"SM_Platform_A-convcol.002",
			"primitives":[
				{
					"attributes":{
						"POSITION":8,
						"NORMAL":9,
						"TEXCOORD_0":10
					},
					"indices":7
				}
			]
		},
		{
			"name":"Cat_Tree-convcol",
			"primitives":[
				{
					"attributes":{
						"POSITION":11,
						"NORMAL":12,
						"TEXCOORD_0":13
					},
					"indices":14
				}
			]
		},
		{
			"name":"AM_Moving_Platform_A-convcol",
			"primitives":[
				{
					"attributes":{
						"POSITION":15,
						"NORMAL":16,
						"TEXCOORD_0":17
					},
					"indices":18
				}
			]
		},
		{
			"name":"SM_Ramp_A-convcol.001",
			"primitives":[
				{
					"attributes":{
						"POSITION":19,
						"NORMAL":20,
						"TEXCOORD_0":21
					},
					"indices":22
				}
			]
		},
		{
			"name":"SM_Ramp_A-convcol.002",
			"primitives":[
				{
					"attributes":{
						"POSITION":23,
						"NORMAL":24,
						"TEXCOORD_0":25
					},
					"indices":26
				}
			]
		},
		{
			"name":"SM_Ramp_A-convcol.003",
			"primitives":[
				{
					"attributes":{
						"POSITION":27,
						"NORMAL":28,
						"TEXCOORD_0":29
					},
					"indices":30
				}
			]
		},
		{
			"name":"SM_Ramp_A-convcol.004",
			"primitives":[
				{
					"attributes":{
						"POSITION":31,
						"NORMAL":32,
						"TEXCOORD_0":33
					},
					"indices":34
				}
			]
		},
		{
			"name":"SM_Ramp_A-convcol.005",
			"primitives":[
				{
					"attributes":{
						"POSITION":35,
						"NORMAL":36,
						"TEXCOORD_0":37
					},
					"indices":38
				}
			]
		},
		{
			"name":"AM_Moving_Platform_A-convcol.001",
			"primitives":[
				{
					"attributes":{
						"POSITION":39,
						"NORMAL":40,
						"TEXCOORD_0":41
					},
					"indices":42
				}
			]
		},
		{
			"name":"AM_Moving_Platform_A-convcol.002",
			"primitives":[
				{
					"attributes":{
						"POSITION":43,
						"NORMAL":44,
						"TEXCOORD_0":45
					},
					"indices":46
				}
			]
		},
		{
			"name":"Cardbox_1-convcol.001",
			"primitives":[
				{
					"attributes":{
						"POSITION":47,
						"NORMAL":48,
						"TEXCOORD_0":49
					},
					"indices":50
				}
			]
		},
		{
			"name":"Cardbox_1-convcol.002",
			"primitives":[
				{
					"attributes":{
						"POSITION":51,
						"NORMAL":52,
						"TEXCOORD_0":53
					},
					"indices":54
				}
			]
		},
		{
			"name":"Cardbox_1-convcol.003",
			"primitives":[
				{
					"attributes":{
						"POSITION":55,
						"NORMAL":56,
						"TEXCOORD_0":57
					},
					"indices":58
				}
			]
		},
		{
			"name":"Cardbox_1-convcol.004",
			"primitives":[
				{
					"attributes":{
						"POSITION":59,
						"NORMAL":60,
						"TEXCOORD_0":61
					},
					"indices":62
				}
			]
		},
		{
			"name":"Cardbox_1-convcol.005",
			"primitives":[
				{
					"attributes":{
						"POSITION":63,
						"NORMAL":64,
						"TEXCOORD_0":65
					},
					"indices":66
				}
			]
		},
		{
			"name":"Cardbox_1-convcol.006",
			"primitives":[
				{
					"attributes":{
						"POSITION":67,
						"NORMAL":68,
						"TEXCOORD_0":69
					},
					"indices":70
				}
			]
		},
		{
			"name":"Cardbox_1-convcol.007",
			"primitives":[
				{
					"attributes":{
						"POSITION":71,
						"NORMAL":72,
						"TEXCOORD_0":73
					},
					"indices":74
				}
			]
		}
	],
	"accessors":[
		{
			"bufferView":0,
			"componentType":5126,
			"count":22,
			"max":[
				-14.190912246704102,
				3.6188669204711914,
				-1.8312357664108276
			],
			"min":[
				-21.52324676513672,
				-0.9646375179290771,
				-2.333750009536743
			],
			"type":"VEC3"
		},
		{
			"bufferView":1,
			"componentType":5126,
			"count":22,
			"type":"VEC3"
		},
		{
			"bufferView":2,
			"componentType":5126,
			"count":22,
			"type":"VEC2"
		},
		{
			"bufferView":3,
			"componentType":5123,
			"count":36,
			"type":"SCALAR"
		},
		{
			"bufferView":4,
			"componentType":5126,
			"count":509,
			"max":[
				-8.513545989990234,
				3.311061382293701,
				2.6365137100219727
			],
			"min":[
				-14.322463035583496,
				-7.130981922149658,
				-2.640749931335449
			],
			"type":"VEC3"
		},
		{
			"bufferView":5,
			"componentType":5126,
			"count":509,
			"type":"VEC3"
		},
		{
			"bufferView":6,
			"componentType":5126,
			"count":509,
			"type":"VEC2"
		},
		{
			"bufferView":7,
			"componentType":5123,
			"count":1626,
			"type":"SCALAR"
		},
		{
			"bufferView":8,
			"componentType":5126,
			"count":509,
			"max":[
				19.288105010986328,
				3.311061382293701,
				2.5527122020721436
			],
			"min":[
				13.823427200317383,
				-7.1309814453125,
				-2.7245514392852783
			],
			"type":"VEC3"
		},
		{
			"bufferView":9,
			"componentType":5126,
			"count":509,
			"type":"VEC3"
		},
		{
			"bufferView":10,
			"componentType":5126,
			"count":509,
			"type":"VEC2"
		},
		{
			"bufferView":11,
			"componentType":5126,
			"count":852,
			"max":[
				24.583539962768555,
				13.568889617919922,
				3.309865713119507
			],
			"min":[
				18.215641021728516,
				-7.141226768493652,
				-3.058032989501953
			],
			"type":"VEC3"
		},
		{
			"bufferView":12,
			"componentType":5126,
			"count":852,
			"type":"VEC3"
		},
		{
			"bufferView":13,
			"componentType":5126,
			"count":852,
			"type":"VEC2"
		},
		{
			"bufferView":14,
			"componentType":5123,
			"count":3024,
			"type":"SCALAR"
		},
		{
			"bufferView":15,
			"componentType":5126,
			"count":30,
			"max":[
				11.529308319091797,
				0.3126225471496582,
				-1.7233428955078125
			],
			"min":[
				-11.552671432495117,
				-0.1502978801727295,
				-2.2258529663085938
			],
			"type":"VEC3"
		},
		{
			"bufferView":16,
			"componentType":5126,
			"count":30,
			"type":"VEC3"
		},
		{
			"bufferView":17,
			"componentType":5126,
			"count":30,
			"type":"VEC2"
		},
		{
			"bufferView":18,
			"componentType":5123,
			"count":54,
			"type":"SCALAR"
		},
		{
			"bufferView":19,
			"componentType":5126,
			"count":24,
			"max":[
				-21.510507583618164,
				-0.5017169117927551,
				-1.8312357664108276
			],
			"min":[
				-30.25824737548828,
				-0.9646375179290771,
				-2.333750009536743
			],
			"type":"VEC3"
		},
		{
			"bufferView":20,
			"componentType":5126,
			"count":24,
			"type":"VEC3"
		},
		{
			"bufferView":21,
			"componentType":5126,
			"count":24,
			"type":"VEC2"
		},
		{
			"bufferView":22,
			"componentType":5123,
			"count":42,
			"type":"SCALAR"
		},
		{
			"bufferView":23,
			"componentType":5126,
			"count":8,
			"max":[
				-14.190912246704102,
				3.355518341064453,
				1.6154476404190063
			],
			"min":[
				-21.52324676513672,
				-0.9646375179290771,
				-1.8312357664108276
			],
			"type":"VEC3"
		},
		{
			"bufferView":24,
			"componentType":5126,
			"count":8,
			"type":"VEC3"
		},
		{
			"bufferView":25,
			"componentType":5126,
			"count":8,
			"type":"VEC2"
		},
		{
			"bufferView":26,
			"componentType":5123,
			"count":12,
			"type":"SCALAR"
		},
		{
			"bufferView":27,
			"componentType":5126,
			"count":12,
			"max":[
				-21.510507583618164,
				-0.7650438547134399,
				1.6154476404190063
			],
			"min":[
				-30.25824737548828,
				-0.9646375179290771,
				-1.8312357664108276
			],
			"type":"VEC3"
		},
		{
			"bufferView":28,
			"componentType":5126,
			"count":12,
			"type":"VEC3"
		},
		{
			"bufferView":29,
			"componentType":5126,
			"count":12,
			"type":"VEC2"
		},
		{
			"bufferView":30,
			"componentType":5123,
			"count":18,
			"type":"SCALAR"
		},
		{
			"bufferView":31,
			"componentType":5126,
			"count":24,
			"max":[
				-21.510507583618164,
				-0.5017169117927551,
				2.1179614067077637
			],
			"min":[
				-30.25824737548828,
				-0.9646375179290771,
				1.6154476404190063
			],
			"type":"VEC3"
		},
		{
			"bufferView":32,
			"componentType":5126,
			"count":24,
			"type":"VEC3"
		},
		{
			"bufferView":33,
			"componentType":5126,
			"count":24,
			"type":"VEC2"
		},
		{
			"bufferView":34,
			"componentType":5123,
			"count":42,
			"type":"SCALAR"
		},
		{
			"bufferView":35,
			"componentType":5126,
			"count":22,
			"max":[
				-14.190912246704102,
				3.6188669204711914,
				2.1179614067077637
			],
			"min":[
				-21.52324676513672,
				-0.9646375179290771,
				1.6154476404190063
			],
			"type":"VEC3"
		},
		{
			"bufferView":36,
			"componentType":5126,
			"count":22,
			"type":"VEC3"
		},
		{
			"bufferView":37,
			"componentType":5126,
			"count":22,
			"type":"VEC2"
		},
		{
			"bufferView":38,
			"componentType":5123,
			"count":36,
			"type":"SCALAR"
		},
		{
			"bufferView":39,
			"componentType":5126,
			"count":16,
			"max":[
				11.529308319091797,
				0.04929542541503906,
				1.7233428955078125
			],
			"min":[
				-11.552671432495117,
				-0.1502978801727295,
				-1.7233428955078125
			],
			"type":"VEC3"
		},
		{
			"bufferView":40,
			"componentType":5126,
			"count":16,
			"type":"VEC3"
		},
		{
			"bufferView":41,
			"componentType":5126,
			"count":16,
			"type":"VEC2"
		},
		{
			"bufferView":42,
			"componentType":5123,
			"count":24,
			"type":"SCALAR"
		},
		{
			"bufferView":43,
			"componentType":5126,
			"count":30,
			"max":[
				11.529308319091797,
				0.3126225471496582,
				2.2258529663085938
			],
			"min":[
				-11.552671432495117,
				-0.1502978801727295,
				1.7233428955078125
			],
			"type":"VEC3"
		},
		{
			"bufferView":44,
			"componentType":5126,
			"count":30,
			"type":"VEC3"
		},
		{
			"bufferView":45,
			"componentType":5126,
			"count":30,
			"type":"VEC2"
		},
		{
			"bufferView":46,
			"componentType":5123,
			"count":54,
			"type":"SCALAR"
		},
		{
			"bufferView":47,
			"componentType":5126,
			"count":8,
			"max":[
				-30.247854232788086,
				-0.7572008967399597,
				2.295851230621338
			],
			"min":[
				-35.288814544677734,
				-0.8384928107261658,
				-2.540051221847534
			],
			"type":"VEC3"
		},
		{
			"bufferView":48,
			"componentType":5126,
			"count":8,
			"type":"VEC3"
		},
		{
			"bufferView":49,
			"componentType":5126,
			"count":8,
			"type":"VEC2"
		},
		{
			"bufferView":50,
			"componentType":5123,
			"count":12,
			"type":"SCALAR"
		},
		{
			"bufferView":51,
			"componentType":5126,
			"count":20,
			"max":[
				-30.192935943603516,
				-0.7572008967399597,
				2.295851230621338
			],
			"min":[
				-30.327266693115234,
				-2.940168619155884,
				-2.540050983428955
			],
			"type":"VEC3"
		},
		{
			"bufferView":52,
			"componentType":5126,
			"count":20,
			"type":"VEC3"
		},
		{
			"bufferView":53,
			"componentType":5126,
			"count":20,
			"type":"VEC2"
		},
		{
			"bufferView":54,
			"componentType":5123,
			"count":30,
			"type":"SCALAR"
		},
		{
			"bufferView":55,
			"componentType":5126,
			"count":12,
			"max":[
				-30.247854232788086,
				2.1230545043945312,
				2.295851230621338
			],
			"min":[
				-35.288814544677734,
				-0.8384928107261658,
				2.184814691543579
			],
			"type":"VEC3"
		},
		{
			"bufferView":56,
			"componentType":5126,
			"count":12,
			"type":"VEC3"
		},
		{
			"bufferView":57,
			"componentType":5126,
			"count":12,
			"type":"VEC2"
		},
		{
			"bufferView":58,
			"componentType":5123,
			"count":18,
			"type":"SCALAR"
		},
		{
			"bufferView":59,
			"componentType":5126,
			"count":8,
			"max":[
				-35.208763122558594,
				2.1230545043945312,
				2.295850992202759
			],
			"min":[
				-35.288814544677734,
				-0.8384925723075867,
				-2.540051221847534
			],
			"type":"VEC3"
		},
		{
			"bufferView":60,
			"componentType":5126,
			"count":8,
			"type":"VEC3"
		},
		{
			"bufferView":61,
			"componentType":5126,
			"count":8,
			"type":"VEC2"
		},
		{
			"bufferView":62,
			"componentType":5123,
			"count":12,
			"type":"SCALAR"
		},
		{
			"bufferView":63,
			"componentType":5126,
			"count":12,
			"max":[
				-30.247854232788086,
				2.1230545043945312,
				-2.4290151596069336
			],
			"min":[
				-35.288814544677734,
				-0.8384928107261658,
				-2.540051221847534
			],
			"type":"VEC3"
		},
		{
			"bufferView":64,
			"componentType":5126,
			"count":12,
			"type":"VEC3"
		},
		{
			"bufferView":65,
			"componentType":5126,
			"count":12,
			"type":"VEC2"
		},
		{
			"bufferView":66,
			"componentType":5123,
			"count":18,
			"type":"SCALAR"
		},
		{
			"bufferView":67,
			"componentType":5126,
			"count":20,
			"max":[
				-29.23564910888672,
				4.123054027557373,
				2.295851230621338
			],
			"min":[
				-30.327266693115234,
				2.0213723182678223,
				-2.540050983428955
			],
			"type":"VEC3"
		},
		{
			"bufferView":68,
			"componentType":5126,
			"count":20,
			"type":"VEC3"
		},
		{
			"bufferView":69,
			"componentType":5126,
			"count":20,
			"type":"VEC2"
		},
		{
			"bufferView":70,
			"componentType":5123,
			"count":30,
			"type":"SCALAR"
		},
		{
			"bufferView":71,
			"componentType":5126,
			"count":8,
			"max":[
				-30.264423370361328,
				2.1230545043945312,
				2.295851230621338
			],
			"min":[
				-35.288814544677734,
				2.0213723182678223,
				-2.540051221847534
			],
			"type":"VEC3"
		},
		{
			"bufferView":72,
			"componentType":5126,
			"count":8,
			"type":"VEC3"
		},
		{
			"bufferView":73,
			"componentType":5126,
			"count":8,
			"type":"VEC2"
		},
		{
			"bufferView":74,
			"componentType":5123,
			"count":12,
			"type":"SCALAR"
		}
	],
	"bufferViews":[
		{
			"buffer":0,
			"byteLength":264,
			"byteOffset":0,
			"target":34962
		},
		{
			"buffer":0,
			"byteLength":264,
			"byteOffset":264,
			"target":34962
		},
		{
			"buffer":0,
			"byteLength":176,
			"byteOffset":528,
			"target":34962
		},
		{
			"buffer":0,
			"byteLength":72,
			"byteOffset":704,
			"target":34963
		},
		{
			"buffer":0,
			"byteLength":6108,
			"byteOffset":776,
			"target":34962
		},
		{
			"buffer":0,
			"byteLength":6108,
			"byteOffset":6884,
			"target":34962
		},
		{
			"buffer":0,
			"byteLength":4072,
			"byteOffset":12992,
			"target":34962
		},
		{
			"buffer":0,
			"byteLength":3252,
			"byteOffset":17064,
			"target":34963
		},
		{
			"buffer":0,
			"byteLength":6108,
			"byteOffset":20316,
			"target":34962
		},
		{
			"buffer":0,
			"byteLength":6108,
			"byteOffset":26424,
			"target":34962
		},
		{
			"buffer":0,
			"byteLength":4072,
			"byteOffset":32532,
			"target":34962
		},
		{
			"buffer":0,
			"byteLength":10224,
			"byteOffset":36604,
			"target":34962
		},
		{
			"buffer":0,
			"byteLength":10224,
			"byteOffset":46828,
			"target":34962
		},
		{
			"buffer":0,
			"byteLength":6816,
			"byteOffset":57052,
			"target":34962
		},
		{
			"buffer":0,
			"byteLength":6048,
			"byteOffset":63868,
			"target":34963
		},
		{
			"buffer":0,
			"byteLength":360,
			"byteOffset":69916,
			"target":34962
		},
		{
			"buffer":0,
			"byteLength":360,
			"byteOffset":70276,
			"target":34962
		},
		{
			"buffer":0,
			"byteLength":240,
			"byteOffset":70636,
			"target":34962
		},
		{
			"buffer":0,
			"byteLength":108,
			"byteOffset":70876,
			"target":34963
		},
		{
			"buffer":0,
			"byteLength":288,
			"byteOffset":70984,
			"target":34962
		},
		{
			"buffer":0,
			"byteLength":288,
			"byteOffset":71272,
			"target":34962
		},
		{
			"buffer":0,
			"byteLength":192,
			"byteOffset":71560,
			"target":34962
		},
		{
			"buffer":0,
			"byteLength":84,
			"byteOffset":71752,
			"target":34963
		},
		{
			"buffer":0,
			"byteLength":96,
			"byteOffset":71836,
			"target":34962
		},
		{
			"buffer":0,
			"byteLength":96,
			"byteOffset":71932,
			"target":34962
		},
		{
			"buffer":0,
			"byteLength":64,
			"byteOffset":72028,
			"target":34962
		},
		{
			"buffer":0,
			"byteLength":24,
			"byteOffset":72092,
			"target":34963
		},
		{
			"buffer":0,
			"byteLength":144,
			"byteOffset":72116,
			"target":34962
		},
		{
			"buffer":0,
			"byteLength":144,
			"byteOffset":72260,
			"target":34962
		},
		{
			"buffer":0,
			"byteLength":96,
			"byteOffset":72404,
			"target":34962
		},
		{
			"buffer":0,
			"byteLength":36,
			"byteOffset":72500,
			"target":34963
		},
		{
			"buffer":0,
			"byteLength":288,
			"byteOffset":72536,
			"target":34962
		},
		{
			"buffer":0,
			"byteLength":288,
			"byteOffset":72824,
			"target":34962
		},
		{
			"buffer":0,
			"byteLength":192,
			"byteOffset":73112,
			"target":34962
		},
		{
			"buffer":0,
			"byteLength":84,
			"byteOffset":73304,
			"target":34963
		},
		{
			"buffer":0,
			"byteLength":264,
			"byteOffset":73388,
			"target":34962
		},
		{
			"buffer":0,
			"byteLength":264,
			"byteOffset":73652,
			"target":34962
		},
		{
			"buffer":0,
			"byteLength":176,
			"byteOffset":73916,
			"target":34962
		},
		{
			"buffer":0,
			"byteLength":72,
			"byteOffset":74092,
			"target":34963
		},
		{
			"buffer":0,
			"byteLength":192,
			"byteOffset":74164,
			"target":34962
		},
		{
			"buffer":0,
			"byteLength":192,
			"byteOffset":74356,
			"target":34962
		},
		{
			"buffer":0,
			"byteLength":128,
			"byteOffset":74548,
			"target":34962
		},
		{
			"buffer":0,
			"byteLength":48,
			"byteOffset":74676,
			"target":34963
		},
		{
			"buffer":0,
			"byteLength":360,
			"byteOffset":74724,
			"target":34962
		},
		{
			"buffer":0,
			"byteLength":360,
			"byteOffset":75084,
			"target":34962
		},
		{
			"buffer":0,
			"byteLength":240,
			"byteOffset":75444,
			"target":34962
		},
		{
			"buffer":0,
			"byteLength":108,
			"byteOffset":75684,
			"target":34963
		},
		{
			"buffer":0,
			"byteLength":96,
			"byteOffset":75792,
			"target":34962
		},
		{
			"buffer":0,
			"byteLength":96,
			"byteOffset":75888,
			"target":34962
		},
		{
			"buffer":0,
			"byteLength":64,
			"byteOffset":75984,
			"target":34962
		},
		{
			"buffer":0,
			"byteLength":24,
			"byteOffset":76048,
			"target":34963
		},
		{
			"buffer":0,
			"byteLength":240,
			"byteOffset":76072,
			"target":34962
		},
		{
			"buffer":0,
			"byteLength":240,
			"byteOffset":76312,
			"target":34962
		},
		{
			"buffer":0,
			"byteLength":160,
			"byteOffset":76552,
			"target":34962
		},
		{
			"buffer":0,
			"byteLength":60,
			"byteOffset":76712,
			"target":34963
		},
		{
			"buffer":0,
			"byteLength":144,
			"byteOffset":76772,
			"target":34962
		},
		{
			"buffer":0,
			"byteLength":144,
			"byteOffset":76916,
			"target":34962
		},
		{
			"buffer":0,
			"byteLength":96,
			"byteOffset":77060,
			"target":34962
		},
		{
			"buffer":0,
			"byteLength":36,
			"byteOffset":77156,
			"target":34963
		},
		{
			"buffer":0,
			"byteLength":96,
			"byteOffset":77192,
			"target":34962
		},
		{
			"buffer":0,
			"byteLength":96,
			"byteOffset":77288,
			"target":34962
		},
		{
			"buffer":0,
			"byteLength":64,
			"byteOffset":77384,
			"target":34962
		},
		{
			"buffer":0,
			"byteLength":24,
			"byteOffset":77448,
			"target":34963
		},
		{
			"buffer":0,
			"byteLength":144,
			"byteOffset":77472,
			"target":34962
		},
		{
			"buffer":0,
			"byteLength":144,
			"byteOffset":77616,
			"target":34962
		},
		{
			"buffer":0,
			"byteLength":96,
			"byteOffset":77760,
			"target":34962
		},
		{
			"buffer":0,
			"byteLength":36,
			"byteOffset":77856,
			"target":34963
		},
		{
			"buffer":0,
			"byteLength":240,
			"byteOffset":77892,
			"target":34962
		},
		{
			"buffer":0,
			"byteLength":240,
			"byteOffset":78132,
			"target":34962
		},
		{
			"buffer":0,
			"byteLength":160,
			"byteOffset":78372,
			"target":34962
		},
		{
			"buffer":0,
			"byteLength":60,
			"byteOffset":78532,
			"target":34963
		},
		{
			"buffer":0,
			"byteLength":96,
			"byteOffset":78592,
			"target":34962
		},
		{
			"buffer":0,
			"byteLength":96,
			"byteOffset":78688,
			"target":34962
		},
		{
			"buffer":0,
			"byteLength":64,
			"byteOffset":78784,
			"target":34962
		},
		{
			"buffer":0,
			"byteLength":24,
			"byteOffset":78848,
			"target":34963
		}
	],
	"buffers":[
		{
			"byteLength":78872,
			"uri":"LV_1_Greybox.bin"
		}
	]
}
