{
	"asset":{
		"generator":"Khronos glTF Blender I/O v4.3.47",
		"version":"2.0"
	},
	"scene":0,
	"scenes":[
		{
			"name":"Scene",
			"nodes":[
				0,
				1,
				2,
				3,
				4,
				5,
				6,
				7,
				8,
				9,
				10
			]
		}
	],
	"nodes":[
		{
			"mesh":0,
			"name":"SM_Ramp_B-convcol"
		},
		{
			"mesh":1,
			"name":"SM_Platform_A-convcol.003"
		},
		{
			"mesh":2,
			"name":"SM_Platform_A-convcol"
		},
		{
			"mesh":3,
			"name":"SM_Platform_B-convcol"
		},
		{
			"mesh":4,
			"name":"Cat_Tree-convcol.003"
		},
		{
			"mesh":5,
			"name":"SM_Platform_D-convcol.005"
		},
		{
			"mesh":6,
			"name":"SM_Platform_C-convcol.004"
		},
		{
			"mesh":7,
			"name":"AM_Moving_Platform_B-convcol.003"
		},
		{
			"mesh":8,
			"name":"AM_Moving_Platform_B-convcol.002",
			"translation":[
				-7.000001430511475,
				0,
				8
			]
		},
		{
			"mesh":9,
			"name":"AM_Moving_Platform_B-convcol.001",
			"translation":[
				-14.000001907348633,
				0,
				-7
			]
		},
		{
			"mesh":10,
			"name":"AM_Moving_Platform_B-convcol",
			"translation":[
				-21.000001907348633,
				0,
				0
			]
		}
	],
	"meshes":[
		{
			"name":"SM_Ramp_B-convcol",
			"primitives":[
				{
					"attributes":{
						"POSITION":0,
						"NORMAL":1,
						"TEXCOORD_0":2
					},
					"indices":3
				}
			]
		},
		{
			"name":"SM_Platform_A-convcol.003",
			"primitives":[
				{
					"attributes":{
						"POSITION":4,
						"NORMAL":5,
						"TEXCOORD_0":6
					},
					"indices":7
				}
			]
		},
		{
			"name":"SM_Platform_A-convcol",
			"primitives":[
				{
					"attributes":{
						"POSITION":8,
						"NORMAL":9,
						"TEXCOORD_0":10
					},
					"indices":11
				}
			]
		},
		{
			"name":"SM_Platform_B-convcol",
			"primitives":[
				{
					"attributes":{
						"POSITION":12,
						"NORMAL":13,
						"TEXCOORD_0":14
					},
					"indices":15
				}
			]
		},
		{
			"name":"Cat_Tree-convcol.003",
			"primitives":[
				{
					"attributes":{
						"POSITION":16,
						"NORMAL":17,
						"TEXCOORD_0":18
					},
					"indices":19
				}
			]
		},
		{
			"name":"SM_Platform_D-convcol.005",
			"primitives":[
				{
					"attributes":{
						"POSITION":20,
						"NORMAL":21,
						"TEXCOORD_0":22
					},
					"indices":23
				}
			]
		},
		{
			"name":"SM_Platform_C-convcol.004",
			"primitives":[
				{
					"attributes":{
						"POSITION":24,
						"NORMAL":25,
						"TEXCOORD_0":26
					},
					"indices":27
				}
			]
		},
		{
			"name":"AM_Moving_Platform_B-convcol",
			"primitives":[
				{
					"attributes":{
						"POSITION":28,
						"NORMAL":29,
						"TEXCOORD_0":30
					},
					"indices":31
				}
			]
		},
		{
			"name":"AM_Moving_Platform_B-convcol",
			"primitives":[
				{
					"attributes":{
						"POSITION":32,
						"NORMAL":33,
						"TEXCOORD_0":34
					},
					"indices":31
				}
			]
		},
		{
			"name":"AM_Moving_Platform_B-convcol",
			"primitives":[
				{
					"attributes":{
						"POSITION":35,
						"NORMAL":36,
						"TEXCOORD_0":37
					},
					"indices":31
				}
			]
		},
		{
			"name":"AM_Moving_Platform_B-convcol",
			"primitives":[
				{
					"attributes":{
						"POSITION":38,
						"NORMAL":39,
						"TEXCOORD_0":40
					},
					"indices":31
				}
			]
		}
	],
	"accessors":[
		{
			"bufferView":0,
			"componentType":5126,
			"count":64,
			"max":[
				-15.309016227722168,
				19.297578811645508,
				-34.31901931762695
			],
			"min":[
				-37.69226837158203,
				12.821084976196289,
				-40.07571792602539
			],
			"type":"VEC3"
		},
		{
			"bufferView":1,
			"componentType":5126,
			"count":64,
			"type":"VEC3"
		},
		{
			"bufferView":2,
			"componentType":5126,
			"count":64,
			"type":"VEC2"
		},
		{
			"bufferView":3,
			"componentType":5123,
			"count":132,
			"type":"SCALAR"
		},
		{
			"bufferView":4,
			"componentType":5126,
			"count":509,
			"max":[
				-3.5042314529418945,
				-0.020338770002126694,
				28.837337493896484
			],
			"min":[
				-8.781496047973633,
				-10.462382316589355,
				23.37265968322754
			],
			"type":"VEC3"
		},
		{
			"bufferView":5,
			"componentType":5126,
			"count":509,
			"type":"VEC3"
		},
		{
			"bufferView":6,
			"componentType":5126,
			"count":509,
			"type":"VEC2"
		},
		{
			"bufferView":7,
			"componentType":5123,
			"count":1626,
			"type":"SCALAR"
		},
		{
			"bufferView":8,
			"componentType":5126,
			"count":198,
			"max":[
				-37.46775436401367,
				19.064414978027344,
				-34.62126541137695
			],
			"min":[
				-42.875919342041016,
				-10.046330451965332,
				-39.91469192504883
			],
			"type":"VEC3"
		},
		{
			"bufferView":9,
			"componentType":5126,
			"count":198,
			"type":"VEC3"
		},
		{
			"bufferView":10,
			"componentType":5126,
			"count":198,
			"type":"VEC2"
		},
		{
			"bufferView":11,
			"componentType":5123,
			"count":552,
			"type":"SCALAR"
		},
		{
			"bufferView":12,
			"componentType":5126,
			"count":64,
			"max":[
				7.7588348388671875,
				13.253164291381836,
				-25.32221794128418
			],
			"min":[
				-15.328472137451172,
				12.26483154296875,
				-48.187652587890625
			],
			"type":"VEC3"
		},
		{
			"bufferView":13,
			"componentType":5126,
			"count":64,
			"type":"VEC3"
		},
		{
			"bufferView":14,
			"componentType":5126,
			"count":64,
			"type":"VEC2"
		},
		{
			"bufferView":15,
			"componentType":5123,
			"count":132,
			"type":"SCALAR"
		},
		{
			"bufferView":16,
			"componentType":5126,
			"count":852,
			"max":[
				-2.8308908939361572,
				10.237488746643066,
				24.498910903930664
			],
			"min":[
				-9.198790550231934,
				-10.472626686096191,
				18.131011962890625
			],
			"type":"VEC3"
		},
		{
			"bufferView":17,
			"componentType":5126,
			"count":852,
			"type":"VEC3"
		},
		{
			"bufferView":18,
			"componentType":5126,
			"count":852,
			"type":"VEC2"
		},
		{
			"bufferView":19,
			"componentType":5123,
			"count":3024,
			"type":"SCALAR"
		},
		{
			"bufferView":20,
			"componentType":5126,
			"count":16,
			"max":[
				35.735076904296875,
				7.011563301086426,
				39.40835952758789
			],
			"min":[
				-3.264922618865967,
				-0.1758028268814087,
				37.99797058105469
			],
			"type":"VEC3"
		},
		{
			"bufferView":21,
			"componentType":5126,
			"count":16,
			"type":"VEC3"
		},
		{
			"bufferView":22,
			"componentType":5126,
			"count":16,
			"type":"VEC2"
		},
		{
			"bufferView":23,
			"componentType":5123,
			"count":24,
			"type":"SCALAR"
		},
		{
			"bufferView":24,
			"componentType":5126,
			"count":483,
			"max":[
				43.15280532836914,
				13.220633506774902,
				42.05624008178711
			],
			"min":[
				-9.582350730895996,
				-0.17580342292785645,
				-40.5008430480957
			],
			"type":"VEC3"
		},
		{
			"bufferView":25,
			"componentType":5126,
			"count":483,
			"type":"VEC3"
		},
		{
			"bufferView":26,
			"componentType":5126,
			"count":483,
			"type":"VEC2"
		},
		{
			"bufferView":27,
			"componentType":5123,
			"count":1482,
			"type":"SCALAR"
		},
		{
			"bufferView":28,
			"componentType":5126,
			"count":24,
			"max":[
				35.735076904296875,
				13.011565208435059,
				-25.636539459228516
			],
			"min":[
				28.735074996948242,
				8.824198722839355,
				-32.5008430480957
			],
			"type":"VEC3"
		},
		{
			"bufferView":29,
			"componentType":5126,
			"count":24,
			"type":"VEC3"
		},
		{
			"bufferView":30,
			"componentType":5126,
			"count":24,
			"type":"VEC2"
		},
		{
			"bufferView":31,
			"componentType":5123,
			"count":36,
			"type":"SCALAR"
		},
		{
			"bufferView":32,
			"componentType":5126,
			"count":24,
			"max":[
				35.735076904296875,
				13.011565208435059,
				-25.636539459228516
			],
			"min":[
				28.735074996948242,
				8.824198722839355,
				-32.5008430480957
			],
			"type":"VEC3"
		},
		{
			"bufferView":33,
			"componentType":5126,
			"count":24,
			"type":"VEC3"
		},
		{
			"bufferView":34,
			"componentType":5126,
			"count":24,
			"type":"VEC2"
		},
		{
			"bufferView":35,
			"componentType":5126,
			"count":24,
			"max":[
				35.735076904296875,
				13.011565208435059,
				-25.636539459228516
			],
			"min":[
				28.735074996948242,
				8.824198722839355,
				-32.5008430480957
			],
			"type":"VEC3"
		},
		{
			"bufferView":36,
			"componentType":5126,
			"count":24,
			"type":"VEC3"
		},
		{
			"bufferView":37,
			"componentType":5126,
			"count":24,
			"type":"VEC2"
		},
		{
			"bufferView":38,
			"componentType":5126,
			"count":24,
			"max":[
				35.735076904296875,
				13.011565208435059,
				-25.636539459228516
			],
			"min":[
				28.735074996948242,
				8.824198722839355,
				-32.5008430480957
			],
			"type":"VEC3"
		},
		{
			"bufferView":39,
			"componentType":5126,
			"count":24,
			"type":"VEC3"
		},
		{
			"bufferView":40,
			"componentType":5126,
			"count":24,
			"type":"VEC2"
		}
	],
	"bufferViews":[
		{
			"buffer":0,
			"byteLength":768,
			"byteOffset":0,
			"target":34962
		},
		{
			"buffer":0,
			"byteLength":768,
			"byteOffset":768,
			"target":34962
		},
		{
			"buffer":0,
			"byteLength":512,
			"byteOffset":1536,
			"target":34962
		},
		{
			"buffer":0,
			"byteLength":264,
			"byteOffset":2048,
			"target":34963
		},
		{
			"buffer":0,
			"byteLength":6108,
			"byteOffset":2312,
			"target":34962
		},
		{
			"buffer":0,
			"byteLength":6108,
			"byteOffset":8420,
			"target":34962
		},
		{
			"buffer":0,
			"byteLength":4072,
			"byteOffset":14528,
			"target":34962
		},
		{
			"buffer":0,
			"byteLength":3252,
			"byteOffset":18600,
			"target":34963
		},
		{
			"buffer":0,
			"byteLength":2376,
			"byteOffset":21852,
			"target":34962
		},
		{
			"buffer":0,
			"byteLength":2376,
			"byteOffset":24228,
			"target":34962
		},
		{
			"buffer":0,
			"byteLength":1584,
			"byteOffset":26604,
			"target":34962
		},
		{
			"buffer":0,
			"byteLength":1104,
			"byteOffset":28188,
			"target":34963
		},
		{
			"buffer":0,
			"byteLength":768,
			"byteOffset":29292,
			"target":34962
		},
		{
			"buffer":0,
			"byteLength":768,
			"byteOffset":30060,
			"target":34962
		},
		{
			"buffer":0,
			"byteLength":512,
			"byteOffset":30828,
			"target":34962
		},
		{
			"buffer":0,
			"byteLength":264,
			"byteOffset":31340,
			"target":34963
		},
		{
			"buffer":0,
			"byteLength":10224,
			"byteOffset":31604,
			"target":34962
		},
		{
			"buffer":0,
			"byteLength":10224,
			"byteOffset":41828,
			"target":34962
		},
		{
			"buffer":0,
			"byteLength":6816,
			"byteOffset":52052,
			"target":34962
		},
		{
			"buffer":0,
			"byteLength":6048,
			"byteOffset":58868,
			"target":34963
		},
		{
			"buffer":0,
			"byteLength":192,
			"byteOffset":64916,
			"target":34962
		},
		{
			"buffer":0,
			"byteLength":192,
			"byteOffset":65108,
			"target":34962
		},
		{
			"buffer":0,
			"byteLength":128,
			"byteOffset":65300,
			"target":34962
		},
		{
			"buffer":0,
			"byteLength":48,
			"byteOffset":65428,
			"target":34963
		},
		{
			"buffer":0,
			"byteLength":5796,
			"byteOffset":65476,
			"target":34962
		},
		{
			"buffer":0,
			"byteLength":5796,
			"byteOffset":71272,
			"target":34962
		},
		{
			"buffer":0,
			"byteLength":3864,
			"byteOffset":77068,
			"target":34962
		},
		{
			"buffer":0,
			"byteLength":2964,
			"byteOffset":80932,
			"target":34963
		},
		{
			"buffer":0,
			"byteLength":288,
			"byteOffset":83896,
			"target":34962
		},
		{
			"buffer":0,
			"byteLength":288,
			"byteOffset":84184,
			"target":34962
		},
		{
			"buffer":0,
			"byteLength":192,
			"byteOffset":84472,
			"target":34962
		},
		{
			"buffer":0,
			"byteLength":72,
			"byteOffset":84664,
			"target":34963
		},
		{
			"buffer":0,
			"byteLength":288,
			"byteOffset":84736,
			"target":34962
		},
		{
			"buffer":0,
			"byteLength":288,
			"byteOffset":85024,
			"target":34962
		},
		{
			"buffer":0,
			"byteLength":192,
			"byteOffset":85312,
			"target":34962
		},
		{
			"buffer":0,
			"byteLength":288,
			"byteOffset":85504,
			"target":34962
		},
		{
			"buffer":0,
			"byteLength":288,
			"byteOffset":85792,
			"target":34962
		},
		{
			"buffer":0,
			"byteLength":192,
			"byteOffset":86080,
			"target":34962
		},
		{
			"buffer":0,
			"byteLength":288,
			"byteOffset":86272,
			"target":34962
		},
		{
			"buffer":0,
			"byteLength":288,
			"byteOffset":86560,
			"target":34962
		},
		{
			"buffer":0,
			"byteLength":192,
			"byteOffset":86848,
			"target":34962
		}
	],
	"buffers":[
		{
			"byteLength":87040,
			"uri":"LV_2_Greybox.bin"
		}
	]
}
