{
	"asset":{
		"generator":"Khronos glTF Blender I/O v4.3.47",
		"version":"2.0"
	},
	"scene":0,
	"scenes":[
		{
			"name":"Scene",
			"nodes":[
				0,
				1,
				2,
				3,
				4,
				5,
				6,
				7,
				8,
				9
			]
		}
	],
	"nodes":[
		{
			"mesh":0,
			"name":"SM_Tunnel-convcol.002",
			"rotation":[
				0.5003100633621216,
				-0.4996897876262665,
				-0.4996897578239441,
				0.5003101229667664
			],
			"scale":[
				1.2638111114501953,
				1.2638111114501953,
				1.2638111114501953
			],
			"translation":[
				5.85205078125,
				10.01810073852539,
				-15.815668106079102
			]
		},
		{
			"mesh":1,
			"name":"SM_Tunnel-convcol.001",
			"rotation":[
				0.0004931328003294766,
				0.00037634093314409256,
				-0.7950149774551392,
				0.6065894961357117
			],
			"scale":[
				1.2638111114501953,
				1.2638111114501953,
				1.2638111114501953
			],
			"translation":[
				-16.84014892578125,
				-1.7530851364135742,
				4.340038299560547
			]
		},
		{
			"mesh":2,
			"name":"SM_Tunnel-convcol",
			"rotation":[
				0,
				0,
				-0.8071815371513367,
				0.590303361415863
			],
			"scale":[
				1.2638111114501953,
				1.2638111114501953,
				1.2638111114501953
			],
			"translation":[
				-6.238996505737305,
				13.018133163452148,
				-21.42014503479004
			]
		},
		{
			"mesh":3,
			"name":"SM_Platform_B-convcol.003"
		},
		{
			"mesh":4,
			"name":"SM_Platform_A.005"
		},
		{
			"mesh":5,
			"name":"SM_Platform_A-convcol.004"
		},
		{
			"mesh":6,
			"name":"SM_Platform_C-convcol"
		},
		{
			"mesh":7,
			"name":"SM_Platform_D-convcol"
		},
		{
			"mesh":8,
			"name":"SM_Stairs-convcol"
		},
		{
			"mesh":9,
			"name":"Cat_Tree-convcol.004"
		}
	],
	"meshes":[
		{
			"name":"SM_Tunnel-convcol.002",
			"primitives":[
				{
					"attributes":{
						"POSITION":0,
						"NORMAL":1,
						"TEXCOORD_0":2
					},
					"indices":3
				}
			]
		},
		{
			"name":"SM_Tunnel-convcol.002",
			"primitives":[
				{
					"attributes":{
						"POSITION":4,
						"NORMAL":5,
						"TEXCOORD_0":6
					},
					"indices":7
				}
			]
		},
		{
			"name":"SM_Tunnel-convcol",
			"primitives":[
				{
					"attributes":{
						"POSITION":8,
						"NORMAL":9,
						"TEXCOORD_0":10
					},
					"indices":3
				}
			]
		},
		{
			"name":"SM_Platform_B-convcol.003",
			"primitives":[
				{
					"attributes":{
						"POSITION":11,
						"NORMAL":12,
						"TEXCOORD_0":13
					},
					"indices":14
				}
			]
		},
		{
			"name":"SM_Platform_A.005",
			"primitives":[
				{
					"attributes":{
						"POSITION":15,
						"NORMAL":16,
						"TEXCOORD_0":17
					},
					"indices":14
				}
			]
		},
		{
			"name":"SM_Platform_A-convcol.004",
			"primitives":[
				{
					"attributes":{
						"POSITION":18,
						"NORMAL":19,
						"TEXCOORD_0":20
					},
					"indices":21
				}
			]
		},
		{
			"name":"SM_Platform_C-convcol",
			"primitives":[
				{
					"attributes":{
						"POSITION":22,
						"NORMAL":23,
						"TEXCOORD_0":24
					},
					"indices":25
				}
			]
		},
		{
			"name":"SM_Platform_D-convcol",
			"primitives":[
				{
					"attributes":{
						"POSITION":26,
						"NORMAL":27,
						"TEXCOORD_0":28
					},
					"indices":29
				}
			]
		},
		{
			"name":"SM_Stairs-convcol",
			"primitives":[
				{
					"attributes":{
						"POSITION":30,
						"NORMAL":31,
						"TEXCOORD_0":32
					},
					"indices":33
				}
			]
		},
		{
			"name":"Cat_Tree-convcol.004",
			"primitives":[
				{
					"attributes":{
						"POSITION":34,
						"NORMAL":35,
						"TEXCOORD_0":36
					},
					"indices":37
				}
			]
		}
	],
	"accessors":[
		{
			"bufferView":0,
			"componentType":5126,
			"count":2374,
			"max":[
				0.9937504529953003,
				8.09386157989502,
				0.9684731960296631
			],
			"min":[
				-0.955502986907959,
				-2.603790283203125,
				-0.9849860668182373
			],
			"type":"VEC3"
		},
		{
			"bufferView":1,
			"componentType":5126,
			"count":2374,
			"type":"VEC3"
		},
		{
			"bufferView":2,
			"componentType":5126,
			"count":2374,
			"type":"VEC2"
		},
		{
			"bufferView":3,
			"componentType":5123,
			"count":11232,
			"type":"SCALAR"
		},
		{
			"bufferView":4,
			"componentType":5126,
			"count":3528,
			"max":[
				0.9937504529953003,
				13.44268798828125,
				0.9684731960296631
			],
			"min":[
				-0.955502986907959,
				-2.603790283203125,
				-0.9849860668182373
			],
			"type":"VEC3"
		},
		{
			"bufferView":5,
			"componentType":5126,
			"count":3528,
			"type":"VEC3"
		},
		{
			"bufferView":6,
			"componentType":5126,
			"count":3528,
			"type":"VEC2"
		},
		{
			"bufferView":7,
			"componentType":5123,
			"count":16752,
			"type":"SCALAR"
		},
		{
			"bufferView":8,
			"componentType":5126,
			"count":2374,
			"max":[
				0.9937503337860107,
				8.09386157989502,
				0.9684732556343079
			],
			"min":[
				-0.9555031061172485,
				-2.603790283203125,
				-0.9849860072135925
			],
			"type":"VEC3"
		},
		{
			"bufferView":9,
			"componentType":5126,
			"count":2374,
			"type":"VEC3"
		},
		{
			"bufferView":10,
			"componentType":5126,
			"count":2374,
			"type":"VEC2"
		},
		{
			"bufferView":11,
			"componentType":5126,
			"count":509,
			"max":[
				-9.688661575317383,
				12.9010009765625,
				-18.40609359741211
			],
			"min":[
				-14.965925216674805,
				-7.541041851043701,
				-24.215011596679688
			],
			"type":"VEC3"
		},
		{
			"bufferView":12,
			"componentType":5126,
			"count":509,
			"type":"VEC3"
		},
		{
			"bufferView":13,
			"componentType":5126,
			"count":509,
			"type":"VEC2"
		},
		{
			"bufferView":14,
			"componentType":5123,
			"count":1626,
			"type":"SCALAR"
		},
		{
			"bufferView":15,
			"componentType":5126,
			"count":509,
			"max":[
				12.280317306518555,
				-7.360593795776367,
				43.72224044799805
			],
			"min":[
				7.003053665161133,
				-17.802637100219727,
				38.25756072998047
			],
			"type":"VEC3"
		},
		{
			"bufferView":16,
			"componentType":5126,
			"count":509,
			"type":"VEC3"
		},
		{
			"bufferView":17,
			"componentType":5126,
			"count":509,
			"type":"VEC2"
		},
		{
			"bufferView":18,
			"componentType":5126,
			"count":198,
			"max":[
				8.400796890258789,
				8.791364669799805,
				-18.602083206176758
			],
			"min":[
				2.992640495300293,
				-7.544560432434082,
				-23.8955078125
			],
			"type":"VEC3"
		},
		{
			"bufferView":19,
			"componentType":5126,
			"count":198,
			"type":"VEC3"
		},
		{
			"bufferView":20,
			"componentType":5126,
			"count":198,
			"type":"VEC2"
		},
		{
			"bufferView":21,
			"componentType":5123,
			"count":552,
			"type":"SCALAR"
		},
		{
			"bufferView":22,
			"componentType":5126,
			"count":76,
			"max":[
				20.179550170898438,
				-7.106462001800537,
				38.456512451171875
			],
			"min":[
				-2.070232391357422,
				-8.094795227050781,
				2.1641626358032227
			],
			"type":"VEC3"
		},
		{
			"bufferView":23,
			"componentType":5126,
			"count":76,
			"type":"VEC3"
		},
		{
			"bufferView":24,
			"componentType":5126,
			"count":76,
			"type":"VEC2"
		},
		{
			"bufferView":25,
			"componentType":5123,
			"count":156,
			"type":"SCALAR"
		},
		{
			"bufferView":26,
			"componentType":5126,
			"count":150,
			"max":[
				-5.290993690490723,
				3.817424774169922,
				7.185072898864746
			],
			"min":[
				-26.43208122253418,
				-2.7289321422576904,
				-8.890398025512695
			],
			"type":"VEC3"
		},
		{
			"bufferView":27,
			"componentType":5126,
			"count":150,
			"type":"VEC3"
		},
		{
			"bufferView":28,
			"componentType":5126,
			"count":150,
			"type":"VEC2"
		},
		{
			"bufferView":29,
			"componentType":5123,
			"count":324,
			"type":"SCALAR"
		},
		{
			"bufferView":30,
			"componentType":5126,
			"count":216,
			"max":[
				6.777141571044922,
				8.923364639282227,
				-0.2910420894622803
			],
			"min":[
				-5.35780143737793,
				3.5243377685546875,
				-5.5853271484375
			],
			"type":"VEC3"
		},
		{
			"bufferView":31,
			"componentType":5126,
			"count":216,
			"type":"VEC3"
		},
		{
			"bufferView":32,
			"componentType":5126,
			"count":216,
			"type":"VEC2"
		},
		{
			"bufferView":33,
			"componentType":5123,
			"count":324,
			"type":"SCALAR"
		},
		{
			"bufferView":34,
			"componentType":5126,
			"count":852,
			"max":[
				12.697611808776855,
				2.8972349166870117,
				48.96389389038086
			],
			"min":[
				6.329713344573975,
				-17.812881469726562,
				42.59599304199219
			],
			"type":"VEC3"
		},
		{
			"bufferView":35,
			"componentType":5126,
			"count":852,
			"type":"VEC3"
		},
		{
			"bufferView":36,
			"componentType":5126,
			"count":852,
			"type":"VEC2"
		},
		{
			"bufferView":37,
			"componentType":5123,
			"count":3024,
			"type":"SCALAR"
		}
	],
	"bufferViews":[
		{
			"buffer":0,
			"byteLength":28488,
			"byteOffset":0,
			"target":34962
		},
		{
			"buffer":0,
			"byteLength":28488,
			"byteOffset":28488,
			"target":34962
		},
		{
			"buffer":0,
			"byteLength":18992,
			"byteOffset":56976,
			"target":34962
		},
		{
			"buffer":0,
			"byteLength":22464,
			"byteOffset":75968,
			"target":34963
		},
		{
			"buffer":0,
			"byteLength":42336,
			"byteOffset":98432,
			"target":34962
		},
		{
			"buffer":0,
			"byteLength":42336,
			"byteOffset":140768,
			"target":34962
		},
		{
			"buffer":0,
			"byteLength":28224,
			"byteOffset":183104,
			"target":34962
		},
		{
			"buffer":0,
			"byteLength":33504,
			"byteOffset":211328,
			"target":34963
		},
		{
			"buffer":0,
			"byteLength":28488,
			"byteOffset":244832,
			"target":34962
		},
		{
			"buffer":0,
			"byteLength":28488,
			"byteOffset":273320,
			"target":34962
		},
		{
			"buffer":0,
			"byteLength":18992,
			"byteOffset":301808,
			"target":34962
		},
		{
			"buffer":0,
			"byteLength":6108,
			"byteOffset":320800,
			"target":34962
		},
		{
			"buffer":0,
			"byteLength":6108,
			"byteOffset":326908,
			"target":34962
		},
		{
			"buffer":0,
			"byteLength":4072,
			"byteOffset":333016,
			"target":34962
		},
		{
			"buffer":0,
			"byteLength":3252,
			"byteOffset":337088,
			"target":34963
		},
		{
			"buffer":0,
			"byteLength":6108,
			"byteOffset":340340,
			"target":34962
		},
		{
			"buffer":0,
			"byteLength":6108,
			"byteOffset":346448,
			"target":34962
		},
		{
			"buffer":0,
			"byteLength":4072,
			"byteOffset":352556,
			"target":34962
		},
		{
			"buffer":0,
			"byteLength":2376,
			"byteOffset":356628,
			"target":34962
		},
		{
			"buffer":0,
			"byteLength":2376,
			"byteOffset":359004,
			"target":34962
		},
		{
			"buffer":0,
			"byteLength":1584,
			"byteOffset":361380,
			"target":34962
		},
		{
			"buffer":0,
			"byteLength":1104,
			"byteOffset":362964,
			"target":34963
		},
		{
			"buffer":0,
			"byteLength":912,
			"byteOffset":364068,
			"target":34962
		},
		{
			"buffer":0,
			"byteLength":912,
			"byteOffset":364980,
			"target":34962
		},
		{
			"buffer":0,
			"byteLength":608,
			"byteOffset":365892,
			"target":34962
		},
		{
			"buffer":0,
			"byteLength":312,
			"byteOffset":366500,
			"target":34963
		},
		{
			"buffer":0,
			"byteLength":1800,
			"byteOffset":366812,
			"target":34962
		},
		{
			"buffer":0,
			"byteLength":1800,
			"byteOffset":368612,
			"target":34962
		},
		{
			"buffer":0,
			"byteLength":1200,
			"byteOffset":370412,
			"target":34962
		},
		{
			"buffer":0,
			"byteLength":648,
			"byteOffset":371612,
			"target":34963
		},
		{
			"buffer":0,
			"byteLength":2592,
			"byteOffset":372260,
			"target":34962
		},
		{
			"buffer":0,
			"byteLength":2592,
			"byteOffset":374852,
			"target":34962
		},
		{
			"buffer":0,
			"byteLength":1728,
			"byteOffset":377444,
			"target":34962
		},
		{
			"buffer":0,
			"byteLength":648,
			"byteOffset":379172,
			"target":34963
		},
		{
			"buffer":0,
			"byteLength":10224,
			"byteOffset":379820,
			"target":34962
		},
		{
			"buffer":0,
			"byteLength":10224,
			"byteOffset":390044,
			"target":34962
		},
		{
			"buffer":0,
			"byteLength":6816,
			"byteOffset":400268,
			"target":34962
		},
		{
			"buffer":0,
			"byteLength":6048,
			"byteOffset":407084,
			"target":34963
		}
	],
	"buffers":[
		{
			"byteLength":413132,
			"uri":"LV_3_Greybox.bin"
		}
	]
}
