{
	"asset":{
		"generator":"Khronos glTF Blender I/O v4.3.47",
		"version":"2.0"
	},
	"scene":0,
	"scenes":[
		{
			"name":"Scene",
			"nodes":[
				0,
				1,
				2
			]
		}
	],
	"nodes":[
		{
			"mesh":0,
			"name":"SM_Platform_Screw_1-convcol"
		},
		{
			"mesh":1,
			"name":"Cat_Tree.006-convcol"
		},
		{
			"mesh":2,
			"name":"Cardbox_1-convcol"
		}
	],
	"meshes":[
		{
			"name":"SM_Platform_Screw_1-convcol",
			"primitives":[
				{
					"attributes":{
						"POSITION":0,
						"NORMAL":1,
						"TEXCOORD_0":2
					},
					"indices":3
				}
			]
		},
		{
			"name":"Cat_Tree.006-convcol",
			"primitives":[
				{
					"attributes":{
						"POSITION":4,
						"NORMAL":5,
						"TEXCOORD_0":6
					},
					"indices":7
				}
			]
		},
		{
			"name":"Cardbox_1-convcol",
			"primitives":[
				{
					"attributes":{
						"POSITION":8,
						"NORMAL":9,
						"TEXCOORD_0":10
					},
					"indices":11
				}
			]
		}
	],
	"accessors":[
		{
			"bufferView":0,
			"componentType":5126,
			"count":752,
			"max":[
				22.191640853881836,
				5.634519577026367,
				23.03757095336914
			],
			"min":[
				-24.05596351623535,
				-6.309630870819092,
				-23.197708129882812
			],
			"type":"VEC3"
		},
		{
			"bufferView":1,
			"componentType":5126,
			"count":752,
			"type":"VEC3"
		},
		{
			"bufferView":2,
			"componentType":5126,
			"count":752,
			"type":"VEC2"
		},
		{
			"bufferView":3,
			"componentType":5123,
			"count":2220,
			"type":"SCALAR"
		},
		{
			"bufferView":4,
			"componentType":5126,
			"count":493,
			"max":[
				-12.858358383178711,
				-1.6169508695602417,
				18.916467666625977
			],
			"min":[
				-20.439353942871094,
				-16.309354782104492,
				11.199239730834961
			],
			"type":"VEC3"
		},
		{
			"bufferView":5,
			"componentType":5126,
			"count":493,
			"type":"VEC3"
		},
		{
			"bufferView":6,
			"componentType":5126,
			"count":493,
			"type":"VEC2"
		},
		{
			"bufferView":7,
			"componentType":5123,
			"count":1584,
			"type":"SCALAR"
		},
		{
			"bufferView":8,
			"componentType":5126,
			"count":88,
			"max":[
				-17.76186752319336,
				10.648042678833008,
				-2.8895888328552246
			],
			"min":[
				-24.91227912902832,
				2.774810314178467,
				-9.788241386413574
			],
			"type":"VEC3"
		},
		{
			"bufferView":9,
			"componentType":5126,
			"count":88,
			"type":"VEC3"
		},
		{
			"bufferView":10,
			"componentType":5126,
			"count":88,
			"type":"VEC2"
		},
		{
			"bufferView":11,
			"componentType":5123,
			"count":132,
			"type":"SCALAR"
		}
	],
	"bufferViews":[
		{
			"buffer":0,
			"byteLength":9024,
			"byteOffset":0,
			"target":34962
		},
		{
			"buffer":0,
			"byteLength":9024,
			"byteOffset":9024,
			"target":34962
		},
		{
			"buffer":0,
			"byteLength":6016,
			"byteOffset":18048,
			"target":34962
		},
		{
			"buffer":0,
			"byteLength":4440,
			"byteOffset":24064,
			"target":34963
		},
		{
			"buffer":0,
			"byteLength":5916,
			"byteOffset":28504,
			"target":34962
		},
		{
			"buffer":0,
			"byteLength":5916,
			"byteOffset":34420,
			"target":34962
		},
		{
			"buffer":0,
			"byteLength":3944,
			"byteOffset":40336,
			"target":34962
		},
		{
			"buffer":0,
			"byteLength":3168,
			"byteOffset":44280,
			"target":34963
		},
		{
			"buffer":0,
			"byteLength":1056,
			"byteOffset":47448,
			"target":34962
		},
		{
			"buffer":0,
			"byteLength":1056,
			"byteOffset":48504,
			"target":34962
		},
		{
			"buffer":0,
			"byteLength":704,
			"byteOffset":49560,
			"target":34962
		},
		{
			"buffer":0,
			"byteLength":264,
			"byteOffset":50264,
			"target":34963
		}
	],
	"buffers":[
		{
			"byteLength":50528,
			"uri":"LV_4_Greybox.bin"
		}
	]
}
