{
	"asset":{
		"generator":"Khronos glTF Blender I/O v4.3.47",
		"version":"2.0"
	},
	"scene":0,
	"scenes":[
		{
			"name":"Scene",
			"nodes":[
				0,
				1,
				2,
				3,
				4,
				5,
				6,
				7,
				8,
				9,
				10,
				11,
				12,
				13,
				14
			]
		}
	],
	"nodes":[
		{
			"mesh":0,
			"name":"SM_Tunnel-convcol.003"
		},
		{
			"mesh":1,
			"name":"SM_Platform_B-convcol.002"
		},
		{
			"mesh":2,
			"name":"SM_Screw_2-convcol"
		},
		{
			"mesh":3,
			"name":"SM_Platform_H-convcol"
		},
		{
			"mesh":4,
			"name":"SM_Platform_G-convcol"
		},
		{
			"mesh":5,
			"name":"SM_Stairs-convcol.001"
		},
		{
			"mesh":6,
			"name":"SM_Platform_I-convcol"
		},
		{
			"mesh":7,
			"name":"SM_Platform_F-convcol"
		},
		{
			"mesh":8,
			"name":"SM_Platform_E-convcol"
		},
		{
			"mesh":9,
			"name":"Cat_Tree-convcol.005"
		},
		{
			"mesh":10,
			"name":"AM_Moving_Platform_B-convcol.009",
			"rotation":[
				0,
				0,
				-0.17772214114665985,
				0.9840807914733887
			],
			"translation":[
				1.6684473752975464,
				0.15916810929775238,
				-15.422704696655273
			]
		},
		{
			"mesh":11,
			"name":"AM_Moving_Platform_B-convcol.008",
			"rotation":[
				0,
				0,
				-0.17772214114665985,
				0.9840807914733887
			],
			"translation":[
				8.289604187011719,
				0.19171129167079926,
				-8.584418296813965
			]
		},
		{
			"mesh":12,
			"name":"AM_Moving_Platform_B-convcol.007",
			"rotation":[
				0,
				0,
				-0.17772214114665985,
				0.9840807914733887
			],
			"translation":[
				15.44583511352539,
				0.19171129167079926,
				-15.767599105834961
			]
		},
		{
			"mesh":13,
			"name":"AM_Moving_Platform_B-convcol.006",
			"rotation":[
				0,
				0,
				-0.17772214114665985,
				0.9840807914733887
			],
			"translation":[
				22.690475463867188,
				0.19171129167079926,
				-8.467581748962402
			]
		},
		{
			"mesh":14,
			"name":"AM_Moving_Platform_A-convcol.001"
		}
	],
	"meshes":[
		{
			"name":"SM_Tunnel-convcol.003",
			"primitives":[
				{
					"attributes":{
						"POSITION":0,
						"NORMAL":1,
						"TEXCOORD_0":2
					},
					"indices":3
				}
			]
		},
		{
			"name":"SM_Platform_B-convcol.002",
			"primitives":[
				{
					"attributes":{
						"POSITION":4,
						"NORMAL":5,
						"TEXCOORD_0":6
					},
					"indices":7
				}
			]
		},
		{
			"name":"SM_Screw_2-convcol",
			"primitives":[
				{
					"attributes":{
						"POSITION":8,
						"NORMAL":9,
						"TEXCOORD_0":10
					},
					"indices":11
				}
			]
		},
		{
			"name":"SM_Platform_H-convcol",
			"primitives":[
				{
					"attributes":{
						"POSITION":12,
						"NORMAL":13,
						"TEXCOORD_0":14
					},
					"indices":15
				}
			]
		},
		{
			"name":"SM_Platform_G-convcol",
			"primitives":[
				{
					"attributes":{
						"POSITION":16,
						"NORMAL":17,
						"TEXCOORD_0":18
					},
					"indices":19
				}
			]
		},
		{
			"name":"SM_Stairs-convcol.001",
			"primitives":[
				{
					"attributes":{
						"POSITION":20,
						"NORMAL":21,
						"TEXCOORD_0":22
					},
					"indices":23
				}
			]
		},
		{
			"name":"SM_Platform_I-convcol",
			"primitives":[
				{
					"attributes":{
						"POSITION":24,
						"NORMAL":25,
						"TEXCOORD_0":26
					},
					"indices":27
				}
			]
		},
		{
			"name":"SM_Platform_F-convcol",
			"primitives":[
				{
					"attributes":{
						"POSITION":28,
						"NORMAL":29,
						"TEXCOORD_0":30
					},
					"indices":31
				}
			]
		},
		{
			"name":"SM_Platform_E-convcol",
			"primitives":[
				{
					"attributes":{
						"POSITION":32,
						"NORMAL":33,
						"TEXCOORD_0":34
					},
					"indices":35
				}
			]
		},
		{
			"name":"Cat_Tree-convcol.005",
			"primitives":[
				{
					"attributes":{
						"POSITION":36,
						"NORMAL":37,
						"TEXCOORD_0":38
					},
					"indices":39
				}
			]
		},
		{
			"name":"AM_Moving_Platform_B-convcol.009",
			"primitives":[
				{
					"attributes":{
						"POSITION":40,
						"NORMAL":41,
						"TEXCOORD_0":42
					},
					"indices":43
				}
			]
		},
		{
			"name":"AM_Moving_Platform_B-convcol.009",
			"primitives":[
				{
					"attributes":{
						"POSITION":44,
						"NORMAL":45,
						"TEXCOORD_0":46
					},
					"indices":43
				}
			]
		},
		{
			"name":"AM_Moving_Platform_B-convcol.009",
			"primitives":[
				{
					"attributes":{
						"POSITION":47,
						"NORMAL":48,
						"TEXCOORD_0":49
					},
					"indices":43
				}
			]
		},
		{
			"name":"AM_Moving_Platform_B-convcol.009",
			"primitives":[
				{
					"attributes":{
						"POSITION":50,
						"NORMAL":51,
						"TEXCOORD_0":52
					},
					"indices":43
				}
			]
		},
		{
			"name":"AM_Moving_Platform_A-convcol.001",
			"primitives":[
				{
					"attributes":{
						"POSITION":53,
						"NORMAL":54,
						"TEXCOORD_0":55
					},
					"indices":56
				}
			]
		}
	],
	"accessors":[
		{
			"bufferView":0,
			"componentType":5126,
			"count":6990,
			"max":[
				-53.038368225097656,
				4.517905235290527,
				35.70595932006836
			],
			"min":[
				-55.50715255737305,
				-1.759451150894165,
				-4.90503454208374
			],
			"type":"VEC3"
		},
		{
			"bufferView":1,
			"componentType":5126,
			"count":6990,
			"type":"VEC3"
		},
		{
			"bufferView":2,
			"componentType":5126,
			"count":6990,
			"type":"VEC2"
		},
		{
			"bufferView":3,
			"componentType":5123,
			"count":33312,
			"type":"SCALAR"
		},
		{
			"bufferView":4,
			"componentType":5126,
			"count":509,
			"max":[
				31.980022430419922,
				2.1646876335144043,
				-9.570074081420898
			],
			"min":[
				26.171106338500977,
				-8.277355194091797,
				-14.84733772277832
			],
			"type":"VEC3"
		},
		{
			"bufferView":5,
			"componentType":5126,
			"count":509,
			"type":"VEC3"
		},
		{
			"bufferView":6,
			"componentType":5126,
			"count":509,
			"type":"VEC2"
		},
		{
			"bufferView":7,
			"componentType":5123,
			"count":1626,
			"type":"SCALAR"
		},
		{
			"bufferView":8,
			"componentType":5126,
			"count":456,
			"max":[
				17.499664306640625,
				-0.10515117645263672,
				95.93771362304688
			],
			"min":[
				-5.814295768737793,
				-9.699191093444824,
				72.67498016357422
			],
			"type":"VEC3"
		},
		{
			"bufferView":9,
			"componentType":5126,
			"count":456,
			"type":"VEC3"
		},
		{
			"bufferView":10,
			"componentType":5126,
			"count":456,
			"type":"VEC2"
		},
		{
			"bufferView":11,
			"componentType":5123,
			"count":1332,
			"type":"SCALAR"
		},
		{
			"bufferView":12,
			"componentType":5126,
			"count":64,
			"max":[
				22.800939559936523,
				0.22082555294036865,
				75.53715515136719
			],
			"min":[
				-0.06449508666992188,
				-0.7675074338912964,
				52.449851989746094
			],
			"type":"VEC3"
		},
		{
			"bufferView":13,
			"componentType":5126,
			"count":64,
			"type":"VEC3"
		},
		{
			"bufferView":14,
			"componentType":5126,
			"count":64,
			"type":"VEC2"
		},
		{
			"bufferView":15,
			"componentType":5123,
			"count":132,
			"type":"SCALAR"
		},
		{
			"bufferView":16,
			"componentType":5126,
			"count":100,
			"max":[
				8.434314727783203,
				8.297102928161621,
				43.8597412109375
			],
			"min":[
				-59.77294158935547,
				-2.4275639057159424,
				33.58655548095703
			],
			"type":"VEC3"
		},
		{
			"bufferView":17,
			"componentType":5126,
			"count":100,
			"type":"VEC3"
		},
		{
			"bufferView":18,
			"componentType":5126,
			"count":100,
			"type":"VEC2"
		},
		{
			"bufferView":19,
			"componentType":5123,
			"count":228,
			"type":"SCALAR"
		},
		{
			"bufferView":20,
			"componentType":5126,
			"count":336,
			"max":[
				13.62842082977295,
				7.866379261016846,
				52.44677734375
			],
			"min":[
				8.334135055541992,
				-0.5887165069580078,
				33.75240707397461
			],
			"type":"VEC3"
		},
		{
			"bufferView":21,
			"componentType":5126,
			"count":336,
			"type":"VEC3"
		},
		{
			"bufferView":22,
			"componentType":5126,
			"count":336,
			"type":"VEC2"
		},
		{
			"bufferView":23,
			"componentType":5123,
			"count":504,
			"type":"SCALAR"
		},
		{
			"bufferView":24,
			"componentType":5126,
			"count":76,
			"max":[
				39.506935119628906,
				2.45487642288208,
				-14.727951049804688
			],
			"min":[
				17.257152557373047,
				1.4665435552597046,
				-93.32798767089844
			],
			"type":"VEC3"
		},
		{
			"bufferView":25,
			"componentType":5126,
			"count":76,
			"type":"VEC3"
		},
		{
			"bufferView":26,
			"componentType":5126,
			"count":76,
			"type":"VEC2"
		},
		{
			"bufferView":27,
			"componentType":5123,
			"count":156,
			"type":"SCALAR"
		},
		{
			"bufferView":28,
			"componentType":5126,
			"count":84,
			"max":[
				-5.451763153076172,
				12.099172592163086,
				-69.65885162353516
			],
			"min":[
				-44.673919677734375,
				1.3745064735412598,
				-92.52428436279297
			],
			"type":"VEC3"
		},
		{
			"bufferView":29,
			"componentType":5126,
			"count":84,
			"type":"VEC3"
		},
		{
			"bufferView":30,
			"componentType":5126,
			"count":84,
			"type":"VEC2"
		},
		{
			"bufferView":31,
			"componentType":5123,
			"count":204,
			"type":"SCALAR"
		},
		{
			"bufferView":32,
			"componentType":5126,
			"count":226,
			"max":[
				-2.0030345916748047,
				5.95850944519043,
				-4.620785236358643
			],
			"min":[
				-60.018821716308594,
				1.727670431137085,
				-19.158458709716797
			],
			"type":"VEC3"
		},
		{
			"bufferView":33,
			"componentType":5126,
			"count":226,
			"type":"VEC3"
		},
		{
			"bufferView":34,
			"componentType":5126,
			"count":226,
			"type":"VEC2"
		},
		{
			"bufferView":35,
			"componentType":5123,
			"count":696,
			"type":"SCALAR"
		},
		{
			"bufferView":36,
			"componentType":5126,
			"count":493,
			"max":[
				-0.2684817314147949,
				-5.607603549957275,
				93.383056640625
			],
			"min":[
				-7.849479675292969,
				-20.30000877380371,
				85.66582489013672
			],
			"type":"VEC3"
		},
		{
			"bufferView":37,
			"componentType":5126,
			"count":493,
			"type":"VEC3"
		},
		{
			"bufferView":38,
			"componentType":5126,
			"count":493,
			"type":"VEC2"
		},
		{
			"bufferView":39,
			"componentType":5123,
			"count":1584,
			"type":"SCALAR"
		},
		{
			"bufferView":40,
			"componentType":5126,
			"count":24,
			"max":[
				4.01124382019043,
				3.1856749057769775,
				3.432152032852173
			],
			"min":[
				-4.01124382019043,
				-3.1856749057769775,
				-3.432152032852173
			],
			"type":"VEC3"
		},
		{
			"bufferView":41,
			"componentType":5126,
			"count":24,
			"type":"VEC3"
		},
		{
			"bufferView":42,
			"componentType":5126,
			"count":24,
			"type":"VEC2"
		},
		{
			"bufferView":43,
			"componentType":5123,
			"count":36,
			"type":"SCALAR"
		},
		{
			"bufferView":44,
			"componentType":5126,
			"count":24,
			"max":[
				4.01124382019043,
				3.1856749057769775,
				3.432152032852173
			],
			"min":[
				-4.01124382019043,
				-3.1856749057769775,
				-3.432152032852173
			],
			"type":"VEC3"
		},
		{
			"bufferView":45,
			"componentType":5126,
			"count":24,
			"type":"VEC3"
		},
		{
			"bufferView":46,
			"componentType":5126,
			"count":24,
			"type":"VEC2"
		},
		{
			"bufferView":47,
			"componentType":5126,
			"count":24,
			"max":[
				4.01124382019043,
				3.1856749057769775,
				3.432152032852173
			],
			"min":[
				-4.01124382019043,
				-3.1856749057769775,
				-3.432152032852173
			],
			"type":"VEC3"
		},
		{
			"bufferView":48,
			"componentType":5126,
			"count":24,
			"type":"VEC3"
		},
		{
			"bufferView":49,
			"componentType":5126,
			"count":24,
			"type":"VEC2"
		},
		{
			"bufferView":50,
			"componentType":5126,
			"count":24,
			"max":[
				4.01124382019043,
				3.1856749057769775,
				3.432152032852173
			],
			"min":[
				-4.01124382019043,
				-3.1856749057769775,
				-3.432152032852173
			],
			"type":"VEC3"
		},
		{
			"bufferView":51,
			"componentType":5126,
			"count":24,
			"type":"VEC3"
		},
		{
			"bufferView":52,
			"componentType":5126,
			"count":24,
			"type":"VEC2"
		},
		{
			"bufferView":53,
			"componentType":5126,
			"count":128,
			"max":[
				17.297300338745117,
				2.4029955863952637,
				-79.7427978515625
			],
			"min":[
				-5.7846784591674805,
				1.940075159072876,
				-84.19450378417969
			],
			"type":"VEC3"
		},
		{
			"bufferView":54,
			"componentType":5126,
			"count":128,
			"type":"VEC3"
		},
		{
			"bufferView":55,
			"componentType":5126,
			"count":128,
			"type":"VEC2"
		},
		{
			"bufferView":56,
			"componentType":5123,
			"count":264,
			"type":"SCALAR"
		}
	],
	"bufferViews":[
		{
			"buffer":0,
			"byteLength":83880,
			"byteOffset":0,
			"target":34962
		},
		{
			"buffer":0,
			"byteLength":83880,
			"byteOffset":83880,
			"target":34962
		},
		{
			"buffer":0,
			"byteLength":55920,
			"byteOffset":167760,
			"target":34962
		},
		{
			"buffer":0,
			"byteLength":66624,
			"byteOffset":223680,
			"target":34963
		},
		{
			"buffer":0,
			"byteLength":6108,
			"byteOffset":290304,
			"target":34962
		},
		{
			"buffer":0,
			"byteLength":6108,
			"byteOffset":296412,
			"target":34962
		},
		{
			"buffer":0,
			"byteLength":4072,
			"byteOffset":302520,
			"target":34962
		},
		{
			"buffer":0,
			"byteLength":3252,
			"byteOffset":306592,
			"target":34963
		},
		{
			"buffer":0,
			"byteLength":5472,
			"byteOffset":309844,
			"target":34962
		},
		{
			"buffer":0,
			"byteLength":5472,
			"byteOffset":315316,
			"target":34962
		},
		{
			"buffer":0,
			"byteLength":3648,
			"byteOffset":320788,
			"target":34962
		},
		{
			"buffer":0,
			"byteLength":2664,
			"byteOffset":324436,
			"target":34963
		},
		{
			"buffer":0,
			"byteLength":768,
			"byteOffset":327100,
			"target":34962
		},
		{
			"buffer":0,
			"byteLength":768,
			"byteOffset":327868,
			"target":34962
		},
		{
			"buffer":0,
			"byteLength":512,
			"byteOffset":328636,
			"target":34962
		},
		{
			"buffer":0,
			"byteLength":264,
			"byteOffset":329148,
			"target":34963
		},
		{
			"buffer":0,
			"byteLength":1200,
			"byteOffset":329412,
			"target":34962
		},
		{
			"buffer":0,
			"byteLength":1200,
			"byteOffset":330612,
			"target":34962
		},
		{
			"buffer":0,
			"byteLength":800,
			"byteOffset":331812,
			"target":34962
		},
		{
			"buffer":0,
			"byteLength":456,
			"byteOffset":332612,
			"target":34963
		},
		{
			"buffer":0,
			"byteLength":4032,
			"byteOffset":333068,
			"target":34962
		},
		{
			"buffer":0,
			"byteLength":4032,
			"byteOffset":337100,
			"target":34962
		},
		{
			"buffer":0,
			"byteLength":2688,
			"byteOffset":341132,
			"target":34962
		},
		{
			"buffer":0,
			"byteLength":1008,
			"byteOffset":343820,
			"target":34963
		},
		{
			"buffer":0,
			"byteLength":912,
			"byteOffset":344828,
			"target":34962
		},
		{
			"buffer":0,
			"byteLength":912,
			"byteOffset":345740,
			"target":34962
		},
		{
			"buffer":0,
			"byteLength":608,
			"byteOffset":346652,
			"target":34962
		},
		{
			"buffer":0,
			"byteLength":312,
			"byteOffset":347260,
			"target":34963
		},
		{
			"buffer":0,
			"byteLength":1008,
			"byteOffset":347572,
			"target":34962
		},
		{
			"buffer":0,
			"byteLength":1008,
			"byteOffset":348580,
			"target":34962
		},
		{
			"buffer":0,
			"byteLength":672,
			"byteOffset":349588,
			"target":34962
		},
		{
			"buffer":0,
			"byteLength":408,
			"byteOffset":350260,
			"target":34963
		},
		{
			"buffer":0,
			"byteLength":2712,
			"byteOffset":350668,
			"target":34962
		},
		{
			"buffer":0,
			"byteLength":2712,
			"byteOffset":353380,
			"target":34962
		},
		{
			"buffer":0,
			"byteLength":1808,
			"byteOffset":356092,
			"target":34962
		},
		{
			"buffer":0,
			"byteLength":1392,
			"byteOffset":357900,
			"target":34963
		},
		{
			"buffer":0,
			"byteLength":5916,
			"byteOffset":359292,
			"target":34962
		},
		{
			"buffer":0,
			"byteLength":5916,
			"byteOffset":365208,
			"target":34962
		},
		{
			"buffer":0,
			"byteLength":3944,
			"byteOffset":371124,
			"target":34962
		},
		{
			"buffer":0,
			"byteLength":3168,
			"byteOffset":375068,
			"target":34963
		},
		{
			"buffer":0,
			"byteLength":288,
			"byteOffset":378236,
			"target":34962
		},
		{
			"buffer":0,
			"byteLength":288,
			"byteOffset":378524,
			"target":34962
		},
		{
			"buffer":0,
			"byteLength":192,
			"byteOffset":378812,
			"target":34962
		},
		{
			"buffer":0,
			"byteLength":72,
			"byteOffset":379004,
			"target":34963
		},
		{
			"buffer":0,
			"byteLength":288,
			"byteOffset":379076,
			"target":34962
		},
		{
			"buffer":0,
			"byteLength":288,
			"byteOffset":379364,
			"target":34962
		},
		{
			"buffer":0,
			"byteLength":192,
			"byteOffset":379652,
			"target":34962
		},
		{
			"buffer":0,
			"byteLength":288,
			"byteOffset":379844,
			"target":34962
		},
		{
			"buffer":0,
			"byteLength":288,
			"byteOffset":380132,
			"target":34962
		},
		{
			"buffer":0,
			"byteLength":192,
			"byteOffset":380420,
			"target":34962
		},
		{
			"buffer":0,
			"byteLength":288,
			"byteOffset":380612,
			"target":34962
		},
		{
			"buffer":0,
			"byteLength":288,
			"byteOffset":380900,
			"target":34962
		},
		{
			"buffer":0,
			"byteLength":192,
			"byteOffset":381188,
			"target":34962
		},
		{
			"buffer":0,
			"byteLength":1536,
			"byteOffset":381380,
			"target":34962
		},
		{
			"buffer":0,
			"byteLength":1536,
			"byteOffset":382916,
			"target":34962
		},
		{
			"buffer":0,
			"byteLength":1024,
			"byteOffset":384452,
			"target":34962
		},
		{
			"buffer":0,
			"byteLength":528,
			"byteOffset":385476,
			"target":34963
		}
	],
	"buffers":[
		{
			"byteLength":386004,
			"uri":"LV_5_Greybox.bin"
		}
	]
}
