{
	"asset":{
		"generator":"Khronos glTF Blender I/O v4.3.47",
		"version":"2.0"
	},
	"scene":0,
	"scenes":[
		{
			"name":"Scene",
			"nodes":[
				0
			]
		}
	],
	"nodes":[
		{
			"mesh":0,
			"name":"SM_ROTATING_platform_convcol.002"
		}
	],
	"materials":[
		{
			"doubleSided":true,
			"name":"M_Trims",
			"pbrMetallicRoughness":{
				"baseColorFactor":[
					0.8009548187255859,
					0.5083984732627869,
					0.13241155445575714,
					1
				],
				"metallicFactor":0,
				"roughnessFactor":0.5
			}
		}
	],
	"meshes":[
		{
			"name":"SM_ROTATING_platform_convcol.001",
			"primitives":[
				{
					"attributes":{
						"POSITION":0,
						"NORMAL":1,
						"TEXCOORD_0":2
					},
					"indices":3,
					"material":0
				}
			]
		}
	],
	"accessors":[
		{
			"bufferView":0,
			"componentType":5126,
			"count":84,
			"max":[
				4.752410888671875,
				0.10915055871009827,
				0.750054657459259
			],
			"min":[
				-4.7523579597473145,
				-0.07956930994987488,
				-0.749945342540741
			],
			"type":"VEC3"
		},
		{
			"bufferView":1,
			"componentType":5126,
			"count":84,
			"type":"VEC3"
		},
		{
			"bufferView":2,
			"componentType":5126,
			"count":84,
			"type":"VEC2"
		},
		{
			"bufferView":3,
			"componentType":5123,
			"count":180,
			"type":"SCALAR"
		}
	],
	"bufferViews":[
		{
			"buffer":0,
			"byteLength":1008,
			"byteOffset":0,
			"target":34962
		},
		{
			"buffer":0,
			"byteLength":1008,
			"byteOffset":1008,
			"target":34962
		},
		{
			"buffer":0,
			"byteLength":672,
			"byteOffset":2016,
			"target":34962
		},
		{
			"buffer":0,
			"byteLength":360,
			"byteOffset":2688,
			"target":34963
		}
	],
	"buffers":[
		{
			"byteLength":3048,
			"uri":"SM_Rotating_Platform.bin"
		}
	]
}
