{
	"asset":{
		"generator":"Khronos glTF Blender I/O v4.3.47",
		"version":"2.0"
	},
	"scene":0,
	"scenes":[
		{
			"name":"Scene",
			"nodes":[
				0
			]
		}
	],
	"nodes":[
		{
			"mesh":0,
			"name":"SM_Goal_Base.006",
			"rotation":[
				0.5,
				-0.5,
				-0.5,
				0.5000000596046448
			]
		}
	],
	"materials":[
		{
			"doubleSided":true,
			"name":"M_Goal_Tree",
			"pbrMetallicRoughness":{
				"baseColorFactor":[
					0.23135563731193542,
					0.1679590344429016,
					0.8006302714347839,
					1
				],
				"metallicFactor":0,
				"roughnessFactor":0.5
			}
		}
	],
	"meshes":[
		{
			"name":"SM_Goal_Base.001",
			"primitives":[
				{
					"attributes":{
						"POSITION":0,
						"NORMAL":1,
						"TEXCOORD_0":2
					},
					"indices":3,
					"material":0
				}
			]
		}
	],
	"accessors":[
		{
			"bufferView":0,
			"componentType":5126,
			"count":2582,
			"max":[
				2.546874523162842,
				3.6346211433410645,
				2.5424818992614746
			],
			"min":[
				-8.52038860321045,
				-2.770014762878418,
				-3.0282528400421143
			],
			"type":"VEC3"
		},
		{
			"bufferView":1,
			"componentType":5126,
			"count":2582,
			"type":"VEC3"
		},
		{
			"bufferView":2,
			"componentType":5126,
			"count":2582,
			"type":"VEC2"
		},
		{
			"bufferView":3,
			"componentType":5123,
			"count":5184,
			"type":"SCALAR"
		}
	],
	"bufferViews":[
		{
			"buffer":0,
			"byteLength":30984,
			"byteOffset":0,
			"target":34962
		},
		{
			"buffer":0,
			"byteLength":30984,
			"byteOffset":30984,
			"target":34962
		},
		{
			"buffer":0,
			"byteLength":20656,
			"byteOffset":61968,
			"target":34962
		},
		{
			"buffer":0,
			"byteLength":10368,
			"byteOffset":82624,
			"target":34963
		}
	],
	"buffers":[
		{
			"byteLength":92992,
			"uri":"SM_Goal_Post_Highpoly.bin"
		}
	]
}
