{
	"asset":{
		"generator":"Khronos glTF Blender I/O v4.3.47",
		"version":"2.0"
	},
	"scene":0,
	"scenes":[
		{
			"name":"Scene",
			"nodes":[
				0
			]
		}
	],
	"nodes":[
		{
			"mesh":0,
			"name":"SM_Goal_Base",
			"rotation":[
				0.5,
				-0.5,
				-0.5,
				0.5000000596046448
			],
			"translation":[
				0,
				2.5,
				0
			]
		}
	],
	"materials":[
		{
			"doubleSided":true,
			"name":"M_Goal_Tree",
			"pbrMetallicRoughness":{
				"baseColorFactor":[
					0.23135563731193542,
					0.1679590344429016,
					0.8006302714347839,
					1
				],
				"metallicFactor":0,
				"roughnessFactor":0.5
			}
		}
	],
	"meshes":[
		{
			"name":"SM_Goal_Base",
			"primitives":[
				{
					"attributes":{
						"POSITION":0,
						"NORMAL":1,
						"TEXCOORD_0":2
					},
					"indices":3,
					"material":0
				}
			]
		}
	],
	"accessors":[
		{
			"bufferView":0,
			"componentType":5126,
			"count":968,
			"max":[
				2.546874523162842,
				3.655618906021118,
				2.5424818992614746
			],
			"min":[
				-8.52176284790039,
				-2.791177749633789,
				-3.0492501258850098
			],
			"type":"VEC3"
		},
		{
			"bufferView":1,
			"componentType":5126,
			"count":968,
			"type":"VEC3"
		},
		{
			"bufferView":2,
			"componentType":5126,
			"count":968,
			"type":"VEC2"
		},
		{
			"bufferView":3,
			"componentType":5123,
			"count":2472,
			"type":"SCALAR"
		}
	],
	"bufferViews":[
		{
			"buffer":0,
			"byteLength":11616,
			"byteOffset":0,
			"target":34962
		},
		{
			"buffer":0,
			"byteLength":11616,
			"byteOffset":11616,
			"target":34962
		},
		{
			"buffer":0,
			"byteLength":7744,
			"byteOffset":23232,
			"target":34962
		},
		{
			"buffer":0,
			"byteLength":4944,
			"byteOffset":30976,
			"target":34963
		}
	],
	"buffers":[
		{
			"byteLength":35920,
			"uri":"SM_Goal_Post.bin"
		}
	]
}
