<?xml version="1.0" encoding="UTF-8"?>
<!DOCTYPE svg PUBLIC "-//W3C//DTD SVG 1.1//EN" "http://www.w3.org/Graphics/SVG/1.1/DTD/svg11.dtd">
<svg xmlns="http://www.w3.org/2000/svg" version="1.1" width="372px" height="384px" style="shape-rendering:geometricPrecision; text-rendering:geometricPrecision; image-rendering:optimizeQuality; fill-rule:evenodd; clip-rule:evenodd" xmlns:xlink="http://www.w3.org/1999/xlink">
<g><path style="opacity:1" fill="#202120" d="M 311.5,23.5 C 299.5,23.5 287.5,23.5 275.5,23.5C 275.5,19.5 275.5,15.5 275.5,11.5C 287.5,11.5 299.5,11.5 311.5,11.5C 311.5,15.5 311.5,19.5 311.5,23.5 Z"/></g>
<g><path style="opacity:1" fill="#202120" d="M 275.5,23.5 C 275.5,27.5 275.5,31.5 275.5,35.5C 271.5,35.5 267.5,35.5 263.5,35.5C 263.5,31.5 263.5,27.5 263.5,23.5C 267.5,23.5 271.5,23.5 275.5,23.5 Z"/></g>
<g><path style="opacity:1" fill="#fcd5b4" d="M 275.5,23.5 C 287.5,23.5 299.5,23.5 311.5,23.5C 311.5,27.5 311.5,31.5 311.5,35.5C 315.5,35.5 319.5,35.5 323.5,35.5C 323.5,39.5 323.5,43.5 323.5,47.5C 315.5,47.5 307.5,47.5 299.5,47.5C 299.5,43.5 299.5,39.5 299.5,35.5C 295.5,35.5 291.5,35.5 287.5,35.5C 287.5,51.5 287.5,67.5 287.5,83.5C 283.5,83.5 279.5,83.5 275.5,83.5C 275.5,91.5 275.5,99.5 275.5,107.5C 271.5,107.5 267.5,107.5 263.5,107.5C 263.5,83.5 263.5,59.5 263.5,35.5C 267.5,35.5 271.5,35.5 275.5,35.5C 275.5,31.5 275.5,27.5 275.5,23.5 Z"/></g>
<g><path style="opacity:1" fill="#202120" d="M 311.5,23.5 C 315.5,23.5 319.5,23.5 323.5,23.5C 323.5,27.5 323.5,31.5 323.5,35.5C 323.5,31.5 323.5,27.5 323.5,23.5C 319.5,23.5 315.5,23.5 311.5,23.5 Z"/></g>
<g><path style="opacity:1" fill="#202120" d="M 263.5,35.5 C 263.5,59.5 263.5,83.5 263.5,107.5C 267.5,107.5 271.5,107.5 275.5,107.5C 275.5,111.5 275.5,115.5 275.5,119.5C 275.5,131.5 275.5,143.5 275.5,155.5C 271.5,155.5 267.5,155.5 263.5,155.5C 263.5,143.5 263.5,131.5 263.5,119.5C 259.5,119.5 255.5,119.5 251.5,119.5C 251.5,131.5 251.5,143.5 251.5,155.5C 247.5,155.5 243.5,155.5 239.5,155.5C 239.5,131.5 239.5,107.5 239.5,83.5C 243.5,83.5 247.5,83.5 251.5,83.5C 251.5,67.5 251.5,51.5 251.5,35.5C 255.5,35.5 259.5,35.5 263.5,35.5 Z M 263.5,155.5 C 259.5,155.5 255.5,155.5 251.5,155.5C 251.5,143.5 251.5,131.5 251.5,119.5C 255.5,119.5 259.5,119.5 263.5,119.5C 263.5,131.5 263.5,143.5 263.5,155.5 Z"/></g>
<g><path style="opacity:1" fill="#f8f4e9" d="M 323.5,47.5 C 323.5,55.5 323.5,63.5 323.5,71.5C 319.5,71.5 315.5,71.5 311.5,71.5C 311.5,75.5 311.5,79.5 311.5,83.5C 307.5,83.5 303.5,83.5 299.5,83.5C 299.5,87.5 299.5,91.5 299.5,95.5C 303.5,95.5 307.5,95.5 311.5,95.5C 311.5,103.5 311.5,111.5 311.5,119.5C 307.5,119.5 303.5,119.5 299.5,119.5C 299.5,131.5 299.5,143.5 299.5,155.5C 299.5,163.5 299.5,171.5 299.5,179.5C 299.5,183.5 299.5,187.5 299.5,191.5C 295.5,191.5 291.5,191.5 287.5,191.5C 287.5,187.5 287.5,183.5 287.5,179.5C 279.5,179.5 271.5,179.5 263.5,179.5C 263.5,171.5 263.5,163.5 263.5,155.5C 267.5,155.5 271.5,155.5 275.5,155.5C 275.5,143.5 275.5,131.5 275.5,119.5C 279.5,119.5 283.5,119.5 287.5,119.5C 287.5,115.5 287.5,111.5 287.5,107.5C 283.5,107.5 279.5,107.5 275.5,107.5C 275.5,99.5 275.5,91.5 275.5,83.5C 279.5,83.5 283.5,83.5 287.5,83.5C 287.5,67.5 287.5,51.5 287.5,35.5C 291.5,35.5 295.5,35.5 299.5,35.5C 299.5,39.5 299.5,43.5 299.5,47.5C 307.5,47.5 315.5,47.5 323.5,47.5 Z"/></g>
<g><path style="opacity:1" fill="#202120" d="M 323.5,35.5 C 327.5,35.5 331.5,35.5 335.5,35.5C 335.5,63.5 335.5,91.5 335.5,119.5C 331.5,119.5 327.5,119.5 323.5,119.5C 323.5,103.5 323.5,87.5 323.5,71.5C 323.5,63.5 323.5,55.5 323.5,47.5C 323.5,43.5 323.5,39.5 323.5,35.5 Z"/></g>
<g><path style="opacity:1" fill="#202120" d="M 95.5,59.5 C 87.5,59.5 79.5,59.5 71.5,59.5C 71.5,55.5 71.5,51.5 71.5,47.5C 79.5,47.5 87.5,47.5 95.5,47.5C 95.5,51.5 95.5,55.5 95.5,59.5 Z"/></g>
<g><path style="opacity:1" fill="#202120" d="M 71.5,59.5 C 71.5,87.5 71.5,115.5 71.5,143.5C 67.5,143.5 63.5,143.5 59.5,143.5C 59.5,115.5 59.5,87.5 59.5,59.5C 63.5,59.5 67.5,59.5 71.5,59.5 Z"/></g>
<g><path style="opacity:1" fill="#fcd5b4" d="M 71.5,59.5 C 79.5,59.5 87.5,59.5 95.5,59.5C 95.5,63.5 95.5,67.5 95.5,71.5C 91.5,71.5 87.5,71.5 83.5,71.5C 83.5,83.5 83.5,95.5 83.5,107.5C 87.5,107.5 91.5,107.5 95.5,107.5C 95.5,103.5 95.5,99.5 95.5,95.5C 99.5,95.5 103.5,95.5 107.5,95.5C 107.5,91.5 107.5,87.5 107.5,83.5C 111.5,83.5 115.5,83.5 119.5,83.5C 119.5,87.5 119.5,91.5 119.5,95.5C 143.5,95.5 167.5,95.5 191.5,95.5C 191.5,91.5 191.5,87.5 191.5,83.5C 195.5,83.5 199.5,83.5 203.5,83.5C 203.5,79.5 203.5,75.5 203.5,71.5C 211.5,71.5 219.5,71.5 227.5,71.5C 227.5,75.5 227.5,79.5 227.5,83.5C 231.5,83.5 235.5,83.5 239.5,83.5C 239.5,107.5 239.5,131.5 239.5,155.5C 243.5,155.5 247.5,155.5 251.5,155.5C 251.5,163.5 251.5,171.5 251.5,179.5C 247.5,179.5 243.5,179.5 239.5,179.5C 239.5,183.5 239.5,187.5 239.5,191.5C 235.5,191.5 231.5,191.5 227.5,191.5C 227.5,195.5 227.5,199.5 227.5,203.5C 219.5,203.5 211.5,203.5 203.5,203.5C 203.5,199.5 203.5,195.5 203.5,191.5C 203.5,183.5 203.5,175.5 203.5,167.5C 195.5,167.5 187.5,167.5 179.5,167.5C 179.5,159.5 179.5,151.5 179.5,143.5C 175.5,143.5 171.5,143.5 167.5,143.5C 163.5,143.5 159.5,143.5 155.5,143.5C 155.5,147.5 155.5,151.5 155.5,155.5C 139.5,155.5 123.5,155.5 107.5,155.5C 107.5,151.5 107.5,147.5 107.5,143.5C 103.5,143.5 99.5,143.5 95.5,143.5C 91.5,143.5 87.5,143.5 83.5,143.5C 83.5,147.5 83.5,151.5 83.5,155.5C 83.5,159.5 83.5,163.5 83.5,167.5C 75.5,167.5 67.5,167.5 59.5,167.5C 59.5,159.5 59.5,151.5 59.5,143.5C 63.5,143.5 67.5,143.5 71.5,143.5C 71.5,115.5 71.5,87.5 71.5,59.5 Z"/></g>
<g><path style="opacity:1" fill="#202120" d="M 95.5,59.5 C 99.5,59.5 103.5,59.5 107.5,59.5C 107.5,63.5 107.5,67.5 107.5,71.5C 103.5,71.5 99.5,71.5 95.5,71.5C 95.5,67.5 95.5,63.5 95.5,59.5 Z"/></g>
<g><path style="opacity:1" fill="#202120" d="M 227.5,71.5 C 219.5,71.5 211.5,71.5 203.5,71.5C 203.5,67.5 203.5,63.5 203.5,59.5C 211.5,59.5 219.5,59.5 227.5,59.5C 227.5,63.5 227.5,67.5 227.5,71.5 Z"/></g>
<g><path style="opacity:1" fill="#d68c76" d="M 95.5,71.5 C 95.5,75.5 95.5,79.5 95.5,83.5C 99.5,83.5 103.5,83.5 107.5,83.5C 107.5,87.5 107.5,91.5 107.5,95.5C 103.5,95.5 99.5,95.5 95.5,95.5C 95.5,99.5 95.5,103.5 95.5,107.5C 91.5,107.5 87.5,107.5 83.5,107.5C 83.5,95.5 83.5,83.5 83.5,71.5C 87.5,71.5 91.5,71.5 95.5,71.5 Z"/></g>
<g><path style="opacity:1" fill="#fcd5b4" d="M 95.5,71.5 C 99.5,71.5 103.5,71.5 107.5,71.5C 107.5,75.5 107.5,79.5 107.5,83.5C 103.5,83.5 99.5,83.5 95.5,83.5C 95.5,79.5 95.5,75.5 95.5,71.5 Z"/></g>
<g><path style="opacity:1" fill="#202120" d="M 107.5,71.5 C 111.5,71.5 115.5,71.5 119.5,71.5C 119.5,75.5 119.5,79.5 119.5,83.5C 115.5,83.5 111.5,83.5 107.5,83.5C 107.5,79.5 107.5,75.5 107.5,71.5 Z"/></g>
<g><path style="opacity:1" fill="#202120" d="M 203.5,71.5 C 203.5,75.5 203.5,79.5 203.5,83.5C 199.5,83.5 195.5,83.5 191.5,83.5C 191.5,79.5 191.5,75.5 191.5,71.5C 195.5,71.5 199.5,71.5 203.5,71.5 Z"/></g>
<g><path style="opacity:1" fill="#202120" d="M 227.5,71.5 C 231.5,71.5 235.5,71.5 239.5,71.5C 239.5,75.5 239.5,79.5 239.5,83.5C 235.5,83.5 231.5,83.5 227.5,83.5C 227.5,79.5 227.5,75.5 227.5,71.5 Z"/></g>
<g><path style="opacity:1" fill="#fcd5b4" d="M 323.5,71.5 C 323.5,87.5 323.5,103.5 323.5,119.5C 319.5,119.5 315.5,119.5 311.5,119.5C 311.5,111.5 311.5,103.5 311.5,95.5C 307.5,95.5 303.5,95.5 299.5,95.5C 299.5,91.5 299.5,87.5 299.5,83.5C 303.5,83.5 307.5,83.5 311.5,83.5C 311.5,79.5 311.5,75.5 311.5,71.5C 315.5,71.5 319.5,71.5 323.5,71.5 Z"/></g>
<g><path style="opacity:1" fill="#202120" d="M 119.5,83.5 C 143.5,83.5 167.5,83.5 191.5,83.5C 191.5,87.5 191.5,91.5 191.5,95.5C 167.5,95.5 143.5,95.5 119.5,95.5C 119.5,91.5 119.5,87.5 119.5,83.5 Z"/></g>
<g><path style="opacity:1" fill="#d68c76" d="M 227.5,83.5 C 227.5,95.5 227.5,107.5 227.5,119.5C 219.5,119.5 211.5,119.5 203.5,119.5C 203.5,111.5 203.5,103.5 203.5,95.5C 207.5,95.5 211.5,95.5 215.5,95.5C 215.5,91.5 215.5,87.5 215.5,83.5C 219.5,83.5 223.5,83.5 227.5,83.5 Z"/></g>
<g><path style="opacity:1" fill="#fcd5b4" d="M 275.5,107.5 C 279.5,107.5 283.5,107.5 287.5,107.5C 287.5,111.5 287.5,115.5 287.5,119.5C 283.5,119.5 279.5,119.5 275.5,119.5C 275.5,115.5 275.5,111.5 275.5,107.5 Z"/></g>
<g><path style="opacity:1" fill="#fcd5b4" d="M 311.5,119.5 C 311.5,131.5 311.5,143.5 311.5,155.5C 307.5,155.5 303.5,155.5 299.5,155.5C 299.5,143.5 299.5,131.5 299.5,119.5C 303.5,119.5 307.5,119.5 311.5,119.5 Z"/></g>
<g><path style="opacity:1" fill="#202120" d="M 311.5,119.5 C 315.5,119.5 319.5,119.5 323.5,119.5C 323.5,131.5 323.5,143.5 323.5,155.5C 319.5,155.5 315.5,155.5 311.5,155.5C 311.5,143.5 311.5,131.5 311.5,119.5 Z"/></g>
<g><path style="opacity:1" fill="#202120" d="M 59.5,143.5 C 59.5,151.5 59.5,159.5 59.5,167.5C 59.5,171.5 59.5,175.5 59.5,179.5C 55.5,179.5 51.5,179.5 47.5,179.5C 47.5,167.5 47.5,155.5 47.5,143.5C 51.5,143.5 55.5,143.5 59.5,143.5 Z"/></g>
<g><path style="opacity:1" fill="#fefffe" d="M 95.5,143.5 C 95.5,147.5 95.5,151.5 95.5,155.5C 91.5,155.5 87.5,155.5 83.5,155.5C 83.5,151.5 83.5,147.5 83.5,143.5C 87.5,143.5 91.5,143.5 95.5,143.5 Z"/></g>
<g><path style="opacity:1" fill="#fefffe" d="M 167.5,143.5 C 167.5,147.5 167.5,151.5 167.5,155.5C 163.5,155.5 159.5,155.5 155.5,155.5C 155.5,151.5 155.5,147.5 155.5,143.5C 159.5,143.5 163.5,143.5 167.5,143.5 Z"/></g>
<g><path style="opacity:1" fill="#000200" d="M 167.5,143.5 C 171.5,143.5 175.5,143.5 179.5,143.5C 179.5,151.5 179.5,159.5 179.5,167.5C 171.5,167.5 163.5,167.5 155.5,167.5C 155.5,163.5 155.5,159.5 155.5,155.5C 159.5,155.5 163.5,155.5 167.5,155.5C 167.5,151.5 167.5,147.5 167.5,143.5 Z"/></g>
<g><path style="opacity:1" fill="#050102" d="M 95.5,143.5 C 99.5,143.5 103.5,143.5 107.5,143.5C 107.5,147.5 107.5,151.5 107.5,155.5C 107.5,159.5 107.5,163.5 107.5,167.5C 99.5,167.5 91.5,167.5 83.5,167.5C 83.5,163.5 83.5,159.5 83.5,155.5C 87.5,155.5 91.5,155.5 95.5,155.5C 95.5,151.5 95.5,147.5 95.5,143.5 Z"/></g>
<g><path style="opacity:1" fill="#f8f3e9" d="M 107.5,155.5 C 123.5,155.5 139.5,155.5 155.5,155.5C 155.5,159.5 155.5,163.5 155.5,167.5C 163.5,167.5 171.5,167.5 179.5,167.5C 187.5,167.5 195.5,167.5 203.5,167.5C 203.5,175.5 203.5,183.5 203.5,191.5C 203.5,195.5 203.5,199.5 203.5,203.5C 203.5,207.5 203.5,211.5 203.5,215.5C 191.5,215.5 179.5,215.5 167.5,215.5C 163.5,215.5 159.5,215.5 155.5,215.5C 155.5,211.5 155.5,207.5 155.5,203.5C 139.5,203.5 123.5,203.5 107.5,203.5C 107.5,199.5 107.5,195.5 107.5,191.5C 103.5,191.5 99.5,191.5 95.5,191.5C 95.5,187.5 95.5,183.5 95.5,179.5C 91.5,179.5 87.5,179.5 83.5,179.5C 83.5,175.5 83.5,171.5 83.5,167.5C 91.5,167.5 99.5,167.5 107.5,167.5C 107.5,163.5 107.5,159.5 107.5,155.5 Z"/></g>
<g><path style="opacity:1" fill="#202120" d="M 251.5,155.5 C 255.5,155.5 259.5,155.5 263.5,155.5C 263.5,163.5 263.5,171.5 263.5,179.5C 271.5,179.5 279.5,179.5 287.5,179.5C 287.5,183.5 287.5,187.5 287.5,191.5C 283.5,191.5 279.5,191.5 275.5,191.5C 263.5,191.5 251.5,191.5 239.5,191.5C 239.5,187.5 239.5,183.5 239.5,179.5C 243.5,179.5 247.5,179.5 251.5,179.5C 251.5,171.5 251.5,163.5 251.5,155.5 Z"/></g>
<g><path style="opacity:1" fill="#202120" d="M 299.5,155.5 C 303.5,155.5 307.5,155.5 311.5,155.5C 311.5,163.5 311.5,171.5 311.5,179.5C 307.5,179.5 303.5,179.5 299.5,179.5C 299.5,171.5 299.5,163.5 299.5,155.5 Z"/></g>
<g><path style="opacity:1" fill="#ea9485" d="M 59.5,167.5 C 67.5,167.5 75.5,167.5 83.5,167.5C 83.5,171.5 83.5,175.5 83.5,179.5C 75.5,179.5 67.5,179.5 59.5,179.5C 59.5,175.5 59.5,171.5 59.5,167.5 Z"/></g>
<g><path style="opacity:1" fill="#000018" d="M 131.5,179.5 C 127.5,179.5 123.5,179.5 119.5,179.5C 119.5,175.5 119.5,171.5 119.5,167.5C 123.5,167.5 127.5,167.5 131.5,167.5C 131.5,171.5 131.5,175.5 131.5,179.5 Z"/></g>
<g><path style="opacity:1" fill="#ea9485" d="M 179.5,167.5 C 187.5,167.5 195.5,167.5 203.5,167.5C 203.5,175.5 203.5,183.5 203.5,191.5C 195.5,191.5 187.5,191.5 179.5,191.5C 179.5,183.5 179.5,175.5 179.5,167.5 Z"/></g>
<g><path style="opacity:1" fill="#01000e" d="M 47.5,179.5 C 47.5,183.5 47.5,187.5 47.5,191.5C 43.5,191.5 39.5,191.5 35.5,191.5C 35.5,187.5 35.5,183.5 35.5,179.5C 39.5,179.5 43.5,179.5 47.5,179.5 Z"/></g>
<g><path style="opacity:1" fill="#e3a266" d="M 47.5,179.5 C 51.5,179.5 55.5,179.5 59.5,179.5C 59.5,183.5 59.5,187.5 59.5,191.5C 71.5,191.5 83.5,191.5 95.5,191.5C 95.5,195.5 95.5,199.5 95.5,203.5C 99.5,203.5 103.5,203.5 107.5,203.5C 107.5,207.5 107.5,211.5 107.5,215.5C 123.5,215.5 139.5,215.5 155.5,215.5C 155.5,219.5 155.5,223.5 155.5,227.5C 159.5,227.5 163.5,227.5 167.5,227.5C 167.5,231.5 167.5,235.5 167.5,239.5C 175.5,239.5 183.5,239.5 191.5,239.5C 191.5,243.5 191.5,247.5 191.5,251.5C 187.5,251.5 183.5,251.5 179.5,251.5C 179.5,255.5 179.5,259.5 179.5,263.5C 175.5,263.5 171.5,263.5 167.5,263.5C 167.5,271.5 167.5,279.5 167.5,287.5C 163.5,287.5 159.5,287.5 155.5,287.5C 155.5,291.5 155.5,295.5 155.5,299.5C 143.5,299.5 131.5,299.5 119.5,299.5C 119.5,295.5 119.5,291.5 119.5,287.5C 111.5,287.5 103.5,287.5 95.5,287.5C 95.5,283.5 95.5,279.5 95.5,275.5C 83.5,275.5 71.5,275.5 59.5,275.5C 59.5,271.5 59.5,267.5 59.5,263.5C 51.5,263.5 43.5,263.5 35.5,263.5C 35.5,259.5 35.5,255.5 35.5,251.5C 27.5,251.5 19.5,251.5 11.5,251.5C 11.5,247.5 11.5,243.5 11.5,239.5C 11.5,235.5 11.5,231.5 11.5,227.5C 11.5,223.5 11.5,219.5 11.5,215.5C 15.5,215.5 19.5,215.5 23.5,215.5C 23.5,211.5 23.5,207.5 23.5,203.5C 27.5,203.5 31.5,203.5 35.5,203.5C 35.5,199.5 35.5,195.5 35.5,191.5C 39.5,191.5 43.5,191.5 47.5,191.5C 47.5,187.5 47.5,183.5 47.5,179.5 Z"/></g>
<g><path style="opacity:1" fill="#01000e" d="M 59.5,179.5 C 67.5,179.5 75.5,179.5 83.5,179.5C 87.5,179.5 91.5,179.5 95.5,179.5C 95.5,183.5 95.5,187.5 95.5,191.5C 83.5,191.5 71.5,191.5 59.5,191.5C 59.5,187.5 59.5,183.5 59.5,179.5 Z"/></g>
<g><path style="opacity:1" fill="#06030e" d="M 119.5,179.5 C 119.5,183.5 119.5,187.5 119.5,191.5C 115.5,191.5 111.5,191.5 107.5,191.5C 107.5,187.5 107.5,183.5 107.5,179.5C 111.5,179.5 115.5,179.5 119.5,179.5 Z"/></g>
<g><path style="opacity:1" fill="#090000" d="M 131.5,179.5 C 135.5,179.5 139.5,179.5 143.5,179.5C 143.5,183.5 143.5,187.5 143.5,191.5C 139.5,191.5 135.5,191.5 131.5,191.5C 131.5,187.5 131.5,183.5 131.5,179.5 Z"/></g>
<g><path style="opacity:1" fill="#02010c" d="M 299.5,179.5 C 303.5,179.5 307.5,179.5 311.5,179.5C 319.5,179.5 327.5,179.5 335.5,179.5C 335.5,183.5 335.5,187.5 335.5,191.5C 323.5,191.5 311.5,191.5 299.5,191.5C 299.5,187.5 299.5,183.5 299.5,179.5 Z"/></g>
<g><path style="opacity:1" fill="#01000e" d="M 35.5,191.5 C 35.5,195.5 35.5,199.5 35.5,203.5C 31.5,203.5 27.5,203.5 23.5,203.5C 23.5,199.5 23.5,195.5 23.5,191.5C 27.5,191.5 31.5,191.5 35.5,191.5 Z"/></g>
<g><path style="opacity:1" fill="#01000e" d="M 95.5,191.5 C 99.5,191.5 103.5,191.5 107.5,191.5C 107.5,195.5 107.5,199.5 107.5,203.5C 103.5,203.5 99.5,203.5 95.5,203.5C 95.5,199.5 95.5,195.5 95.5,191.5 Z"/></g>
<g><path style="opacity:1" fill="#202120" d="M 239.5,191.5 C 239.5,195.5 239.5,199.5 239.5,203.5C 235.5,203.5 231.5,203.5 227.5,203.5C 227.5,199.5 227.5,195.5 227.5,191.5C 231.5,191.5 235.5,191.5 239.5,191.5 Z"/></g>
<g><path style="opacity:1" fill="#e5b49f" d="M 239.5,191.5 C 251.5,191.5 263.5,191.5 275.5,191.5C 275.5,195.5 275.5,199.5 275.5,203.5C 263.5,203.5 251.5,203.5 239.5,203.5C 239.5,199.5 239.5,195.5 239.5,191.5 Z"/></g>
<g><path style="opacity:1" fill="#01000e" d="M 275.5,191.5 C 279.5,191.5 283.5,191.5 287.5,191.5C 291.5,191.5 295.5,191.5 299.5,191.5C 299.5,195.5 299.5,199.5 299.5,203.5C 291.5,203.5 283.5,203.5 275.5,203.5C 275.5,199.5 275.5,195.5 275.5,191.5 Z"/></g>
<g><path style="opacity:1" fill="#e3a266" d="M 299.5,191.5 C 311.5,191.5 323.5,191.5 335.5,191.5C 335.5,195.5 335.5,199.5 335.5,203.5C 339.5,203.5 343.5,203.5 347.5,203.5C 347.5,207.5 347.5,211.5 347.5,215.5C 351.5,215.5 355.5,215.5 359.5,215.5C 359.5,227.5 359.5,239.5 359.5,251.5C 351.5,251.5 343.5,251.5 335.5,251.5C 335.5,255.5 335.5,259.5 335.5,263.5C 327.5,263.5 319.5,263.5 311.5,263.5C 311.5,267.5 311.5,271.5 311.5,275.5C 303.5,275.5 295.5,275.5 287.5,275.5C 287.5,279.5 287.5,283.5 287.5,287.5C 275.5,287.5 263.5,287.5 251.5,287.5C 251.5,283.5 251.5,279.5 251.5,275.5C 243.5,275.5 235.5,275.5 227.5,275.5C 227.5,271.5 227.5,267.5 227.5,263.5C 223.5,263.5 219.5,263.5 215.5,263.5C 215.5,259.5 215.5,255.5 215.5,251.5C 211.5,251.5 207.5,251.5 203.5,251.5C 203.5,247.5 203.5,243.5 203.5,239.5C 207.5,239.5 211.5,239.5 215.5,239.5C 215.5,235.5 215.5,231.5 215.5,227.5C 223.5,227.5 231.5,227.5 239.5,227.5C 239.5,223.5 239.5,219.5 239.5,215.5C 251.5,215.5 263.5,215.5 275.5,215.5C 275.5,211.5 275.5,207.5 275.5,203.5C 283.5,203.5 291.5,203.5 299.5,203.5C 299.5,199.5 299.5,195.5 299.5,191.5 Z"/></g>
<g><path style="opacity:1" fill="#04031f" d="M 335.5,191.5 C 339.5,191.5 343.5,191.5 347.5,191.5C 347.5,195.5 347.5,199.5 347.5,203.5C 347.5,199.5 347.5,195.5 347.5,191.5C 343.5,191.5 339.5,191.5 335.5,191.5 Z"/></g>
<g><path style="opacity:1" fill="#01000e" d="M 23.5,203.5 C 23.5,207.5 23.5,211.5 23.5,215.5C 19.5,215.5 15.5,215.5 11.5,215.5C 11.5,211.5 11.5,207.5 11.5,203.5C 15.5,203.5 19.5,203.5 23.5,203.5 Z"/></g>
<g><path style="opacity:1" fill="#00010e" d="M 107.5,203.5 C 123.5,203.5 139.5,203.5 155.5,203.5C 155.5,207.5 155.5,211.5 155.5,215.5C 139.5,215.5 123.5,215.5 107.5,215.5C 107.5,211.5 107.5,207.5 107.5,203.5 Z"/></g>
<g><path style="opacity:1" fill="#202120" d="M 203.5,203.5 C 211.5,203.5 219.5,203.5 227.5,203.5C 227.5,207.5 227.5,211.5 227.5,215.5C 223.5,215.5 219.5,215.5 215.5,215.5C 211.5,215.5 207.5,215.5 203.5,215.5C 203.5,211.5 203.5,207.5 203.5,203.5 Z"/></g>
<g><path style="opacity:1" fill="#e5b49f" d="M 227.5,203.5 C 231.5,203.5 235.5,203.5 239.5,203.5C 239.5,207.5 239.5,211.5 239.5,215.5C 235.5,215.5 231.5,215.5 227.5,215.5C 227.5,211.5 227.5,207.5 227.5,203.5 Z"/></g>
<g><path style="opacity:1" fill="#01000e" d="M 239.5,203.5 C 251.5,203.5 263.5,203.5 275.5,203.5C 275.5,207.5 275.5,211.5 275.5,215.5C 263.5,215.5 251.5,215.5 239.5,215.5C 239.5,211.5 239.5,207.5 239.5,203.5 Z"/></g>
<g><path style="opacity:1" fill="#030106" d="M 347.5,203.5 C 351.5,203.5 355.5,203.5 359.5,203.5C 359.5,207.5 359.5,211.5 359.5,215.5C 359.5,211.5 359.5,207.5 359.5,203.5C 355.5,203.5 351.5,203.5 347.5,203.5 Z"/></g>
<g><path style="opacity:1" fill="#01000e" d="M -0.5,215.5 C 3.5,215.5 7.5,215.5 11.5,215.5C 11.5,219.5 11.5,223.5 11.5,227.5C 7.5,227.5 3.5,227.5 -0.5,227.5C -0.5,223.5 -0.5,219.5 -0.5,215.5 Z"/></g>
<g><path style="opacity:1" fill="#202120" d="M 155.5,215.5 C 159.5,215.5 163.5,215.5 167.5,215.5C 167.5,219.5 167.5,223.5 167.5,227.5C 163.5,227.5 159.5,227.5 155.5,227.5C 155.5,223.5 155.5,219.5 155.5,215.5 Z"/></g>
<g><path style="opacity:1" fill="#e5b49f" d="M 167.5,215.5 C 179.5,215.5 191.5,215.5 203.5,215.5C 207.5,215.5 211.5,215.5 215.5,215.5C 215.5,219.5 215.5,223.5 215.5,227.5C 199.5,227.5 183.5,227.5 167.5,227.5C 167.5,223.5 167.5,219.5 167.5,215.5 Z"/></g>
<g><path style="opacity:1" fill="#01000e" d="M 215.5,215.5 C 219.5,215.5 223.5,215.5 227.5,215.5C 231.5,215.5 235.5,215.5 239.5,215.5C 239.5,219.5 239.5,223.5 239.5,227.5C 231.5,227.5 223.5,227.5 215.5,227.5C 215.5,223.5 215.5,219.5 215.5,215.5 Z"/></g>
<g><path style="opacity:1" fill="#01000e" d="M 359.5,215.5 C 363.5,215.5 367.5,215.5 371.5,215.5C 371.5,227.5 371.5,239.5 371.5,251.5C 367.5,251.5 363.5,251.5 359.5,251.5C 359.5,239.5 359.5,227.5 359.5,215.5 Z"/></g>
<g><path style="opacity:1" fill="#0e0a20" d="M -0.5,227.5 C 3.5,227.5 7.5,227.5 11.5,227.5C 11.5,231.5 11.5,235.5 11.5,239.5C 7.5,239.5 3.5,239.5 -0.5,239.5C -0.5,235.5 -0.5,231.5 -0.5,227.5 Z"/></g>
<g><path style="opacity:1" fill="#01000e" d="M 167.5,227.5 C 183.5,227.5 199.5,227.5 215.5,227.5C 215.5,231.5 215.5,235.5 215.5,239.5C 211.5,239.5 207.5,239.5 203.5,239.5C 203.5,243.5 203.5,247.5 203.5,251.5C 199.5,251.5 195.5,251.5 191.5,251.5C 191.5,247.5 191.5,243.5 191.5,239.5C 183.5,239.5 175.5,239.5 167.5,239.5C 167.5,235.5 167.5,231.5 167.5,227.5 Z"/></g>
<g><path style="opacity:1" fill="#01000e" d="M -0.5,239.5 C 3.5,239.5 7.5,239.5 11.5,239.5C 11.5,243.5 11.5,247.5 11.5,251.5C 7.5,251.5 3.5,251.5 -0.5,251.5C -0.5,247.5 -0.5,243.5 -0.5,239.5 Z"/></g>
<g><path style="opacity:1" fill="#01000e" d="M 11.5,251.5 C 19.5,251.5 27.5,251.5 35.5,251.5C 35.5,255.5 35.5,259.5 35.5,263.5C 27.5,263.5 19.5,263.5 11.5,263.5C 11.5,259.5 11.5,255.5 11.5,251.5 Z"/></g>
<g><path style="opacity:1" fill="#01000e" d="M 191.5,251.5 C 191.5,255.5 191.5,259.5 191.5,263.5C 187.5,263.5 183.5,263.5 179.5,263.5C 179.5,259.5 179.5,255.5 179.5,251.5C 183.5,251.5 187.5,251.5 191.5,251.5 Z"/></g>
<g><path style="opacity:1" fill="#984f38" d="M 191.5,251.5 C 195.5,251.5 199.5,251.5 203.5,251.5C 203.5,255.5 203.5,259.5 203.5,263.5C 203.5,299.5 203.5,335.5 203.5,371.5C 199.5,371.5 195.5,371.5 191.5,371.5C 191.5,335.5 191.5,299.5 191.5,263.5C 191.5,259.5 191.5,255.5 191.5,251.5 Z"/></g>
<g><path style="opacity:1" fill="#01000e" d="M 203.5,251.5 C 207.5,251.5 211.5,251.5 215.5,251.5C 215.5,255.5 215.5,259.5 215.5,263.5C 211.5,263.5 207.5,263.5 203.5,263.5C 203.5,259.5 203.5,255.5 203.5,251.5 Z"/></g>
<g><path style="opacity:1" fill="#01000e" d="M 35.5,263.5 C 43.5,263.5 51.5,263.5 59.5,263.5C 59.5,267.5 59.5,271.5 59.5,275.5C 55.5,275.5 51.5,275.5 47.5,275.5C 47.5,291.5 47.5,307.5 47.5,323.5C 43.5,323.5 39.5,323.5 35.5,323.5C 35.5,303.5 35.5,283.5 35.5,263.5 Z"/></g>
<g><path style="opacity:1" fill="#01000e" d="M 179.5,263.5 C 179.5,271.5 179.5,279.5 179.5,287.5C 175.5,287.5 171.5,287.5 167.5,287.5C 167.5,279.5 167.5,271.5 167.5,263.5C 171.5,263.5 175.5,263.5 179.5,263.5 Z"/></g>
<g><path style="opacity:1" fill="#e5a869" d="M 179.5,263.5 C 183.5,263.5 187.5,263.5 191.5,263.5C 191.5,299.5 191.5,335.5 191.5,371.5C 183.5,371.5 175.5,371.5 167.5,371.5C 167.5,367.5 167.5,363.5 167.5,359.5C 155.5,359.5 143.5,359.5 131.5,359.5C 131.5,355.5 131.5,351.5 131.5,347.5C 119.5,347.5 107.5,347.5 95.5,347.5C 95.5,343.5 95.5,339.5 95.5,335.5C 83.5,335.5 71.5,335.5 59.5,335.5C 59.5,331.5 59.5,327.5 59.5,323.5C 55.5,323.5 51.5,323.5 47.5,323.5C 47.5,307.5 47.5,291.5 47.5,275.5C 51.5,275.5 55.5,275.5 59.5,275.5C 59.5,279.5 59.5,283.5 59.5,287.5C 71.5,287.5 83.5,287.5 95.5,287.5C 95.5,291.5 95.5,295.5 95.5,299.5C 103.5,299.5 111.5,299.5 119.5,299.5C 119.5,303.5 119.5,307.5 119.5,311.5C 131.5,311.5 143.5,311.5 155.5,311.5C 155.5,307.5 155.5,303.5 155.5,299.5C 159.5,299.5 163.5,299.5 167.5,299.5C 167.5,295.5 167.5,291.5 167.5,287.5C 171.5,287.5 175.5,287.5 179.5,287.5C 179.5,279.5 179.5,271.5 179.5,263.5 Z"/></g>
<g><path style="opacity:1" fill="#b3644d" d="M 203.5,263.5 C 207.5,263.5 211.5,263.5 215.5,263.5C 219.5,263.5 223.5,263.5 227.5,263.5C 227.5,267.5 227.5,271.5 227.5,275.5C 227.5,279.5 227.5,283.5 227.5,287.5C 235.5,287.5 243.5,287.5 251.5,287.5C 251.5,291.5 251.5,295.5 251.5,299.5C 263.5,299.5 275.5,299.5 287.5,299.5C 287.5,295.5 287.5,291.5 287.5,287.5C 295.5,287.5 303.5,287.5 311.5,287.5C 311.5,283.5 311.5,279.5 311.5,275.5C 319.5,275.5 327.5,275.5 335.5,275.5C 335.5,291.5 335.5,307.5 335.5,323.5C 327.5,323.5 319.5,323.5 311.5,323.5C 311.5,327.5 311.5,331.5 311.5,335.5C 303.5,335.5 295.5,335.5 287.5,335.5C 287.5,339.5 287.5,343.5 287.5,347.5C 275.5,347.5 263.5,347.5 251.5,347.5C 251.5,351.5 251.5,355.5 251.5,359.5C 243.5,359.5 235.5,359.5 227.5,359.5C 227.5,363.5 227.5,367.5 227.5,371.5C 219.5,371.5 211.5,371.5 203.5,371.5C 203.5,335.5 203.5,299.5 203.5,263.5 Z"/></g>
<g><path style="opacity:1" fill="#01000e" d="M 215.5,263.5 C 219.5,263.5 223.5,263.5 227.5,263.5C 227.5,267.5 227.5,271.5 227.5,275.5C 223.5,275.5 219.5,275.5 215.5,275.5C 215.5,271.5 215.5,267.5 215.5,263.5 Z"/></g>
<g><path style="opacity:1" fill="#01000e" d="M 59.5,275.5 C 71.5,275.5 83.5,275.5 95.5,275.5C 95.5,279.5 95.5,283.5 95.5,287.5C 83.5,287.5 71.5,287.5 59.5,287.5C 59.5,283.5 59.5,279.5 59.5,275.5 Z"/></g>
<g><path style="opacity:1" fill="#01000e" d="M 227.5,275.5 C 235.5,275.5 243.5,275.5 251.5,275.5C 251.5,279.5 251.5,283.5 251.5,287.5C 243.5,287.5 235.5,287.5 227.5,287.5C 227.5,283.5 227.5,279.5 227.5,275.5 Z"/></g>
<g><path style="opacity:1" fill="#01000e" d="M 311.5,275.5 C 311.5,279.5 311.5,283.5 311.5,287.5C 303.5,287.5 295.5,287.5 287.5,287.5C 287.5,283.5 287.5,279.5 287.5,275.5C 295.5,275.5 303.5,275.5 311.5,275.5 Z"/></g>
<g><path style="opacity:1" fill="#00000c" d="M 359.5,251.5 C 359.5,255.5 359.5,259.5 359.5,263.5C 355.5,263.5 351.5,263.5 347.5,263.5C 347.5,283.5 347.5,303.5 347.5,323.5C 343.5,323.5 339.5,323.5 335.5,323.5C 335.5,307.5 335.5,291.5 335.5,275.5C 327.5,275.5 319.5,275.5 311.5,275.5C 311.5,271.5 311.5,267.5 311.5,263.5C 319.5,263.5 327.5,263.5 335.5,263.5C 335.5,259.5 335.5,255.5 335.5,251.5C 343.5,251.5 351.5,251.5 359.5,251.5 Z"/></g>
<g><path style="opacity:1" fill="#01000e" d="M 95.5,287.5 C 103.5,287.5 111.5,287.5 119.5,287.5C 119.5,291.5 119.5,295.5 119.5,299.5C 111.5,299.5 103.5,299.5 95.5,299.5C 95.5,295.5 95.5,291.5 95.5,287.5 Z"/></g>
<g><path style="opacity:1" fill="#01000e" d="M 167.5,287.5 C 167.5,291.5 167.5,295.5 167.5,299.5C 163.5,299.5 159.5,299.5 155.5,299.5C 155.5,295.5 155.5,291.5 155.5,287.5C 159.5,287.5 163.5,287.5 167.5,287.5 Z"/></g>
<g><path style="opacity:1" fill="#01000e" d="M 251.5,287.5 C 263.5,287.5 275.5,287.5 287.5,287.5C 287.5,291.5 287.5,295.5 287.5,299.5C 275.5,299.5 263.5,299.5 251.5,299.5C 251.5,295.5 251.5,291.5 251.5,287.5 Z"/></g>
<g><path style="opacity:1" fill="#01000e" d="M 119.5,299.5 C 131.5,299.5 143.5,299.5 155.5,299.5C 155.5,303.5 155.5,307.5 155.5,311.5C 143.5,311.5 131.5,311.5 119.5,311.5C 119.5,307.5 119.5,303.5 119.5,299.5 Z"/></g>
<g><path style="opacity:1" fill="#01000e" d="M 47.5,323.5 C 51.5,323.5 55.5,323.5 59.5,323.5C 59.5,327.5 59.5,331.5 59.5,335.5C 55.5,335.5 51.5,335.5 47.5,335.5C 47.5,331.5 47.5,327.5 47.5,323.5 Z"/></g>
<g><path style="opacity:1" fill="#01000e" d="M 335.5,323.5 C 335.5,327.5 335.5,331.5 335.5,335.5C 327.5,335.5 319.5,335.5 311.5,335.5C 311.5,331.5 311.5,327.5 311.5,323.5C 319.5,323.5 327.5,323.5 335.5,323.5 Z"/></g>
<g><path style="opacity:1" fill="#01000e" d="M 59.5,335.5 C 71.5,335.5 83.5,335.5 95.5,335.5C 95.5,339.5 95.5,343.5 95.5,347.5C 83.5,347.5 71.5,347.5 59.5,347.5C 59.5,343.5 59.5,339.5 59.5,335.5 Z"/></g>
<g><path style="opacity:1" fill="#01000e" d="M 311.5,335.5 C 311.5,339.5 311.5,343.5 311.5,347.5C 303.5,347.5 295.5,347.5 287.5,347.5C 287.5,343.5 287.5,339.5 287.5,335.5C 295.5,335.5 303.5,335.5 311.5,335.5 Z"/></g>
<g><path style="opacity:1" fill="#01000e" d="M 95.5,347.5 C 107.5,347.5 119.5,347.5 131.5,347.5C 131.5,351.5 131.5,355.5 131.5,359.5C 119.5,359.5 107.5,359.5 95.5,359.5C 95.5,355.5 95.5,351.5 95.5,347.5 Z"/></g>
<g><path style="opacity:1" fill="#01000e" d="M 287.5,347.5 C 287.5,351.5 287.5,355.5 287.5,359.5C 275.5,359.5 263.5,359.5 251.5,359.5C 251.5,355.5 251.5,351.5 251.5,347.5C 263.5,347.5 275.5,347.5 287.5,347.5 Z"/></g>
<g><path style="opacity:1" fill="#01000e" d="M 131.5,359.5 C 143.5,359.5 155.5,359.5 167.5,359.5C 167.5,363.5 167.5,367.5 167.5,371.5C 155.5,371.5 143.5,371.5 131.5,371.5C 131.5,367.5 131.5,363.5 131.5,359.5 Z"/></g>
<g><path style="opacity:1" fill="#01000e" d="M 251.5,359.5 C 251.5,363.5 251.5,367.5 251.5,371.5C 243.5,371.5 235.5,371.5 227.5,371.5C 227.5,367.5 227.5,363.5 227.5,359.5C 235.5,359.5 243.5,359.5 251.5,359.5 Z"/></g>
<g><path style="opacity:1" fill="#00000d" d="M 167.5,371.5 C 175.5,371.5 183.5,371.5 191.5,371.5C 195.5,371.5 199.5,371.5 203.5,371.5C 211.5,371.5 219.5,371.5 227.5,371.5C 227.5,375.5 227.5,379.5 227.5,383.5C 207.5,383.5 187.5,383.5 167.5,383.5C 167.5,379.5 167.5,375.5 167.5,371.5 Z"/></g>
</svg>
