{
	"asset":{
		"generator":"Khronos glTF Blender I/O v4.3.47",
		"version":"2.0"
	},
	"scene":0,
	"scenes":[
		{
			"name":"Scene",
			"nodes":[
				0
			]
		}
	],
	"nodes":[
		{
			"mesh":0,
			"name":"Fish"
		}
	],
	"meshes":[
		{
			"name":"Mesh",
			"primitives":[
				{
					"attributes":{
						"POSITION":0,
						"NORMAL":1,
						"TEXCOORD_0":2
					},
					"indices":3
				}
			]
		}
	],
	"accessors":[
		{
			"bufferView":0,
			"componentType":5126,
			"count":115,
			"max":[
				0.18688127398490906,
				0.2290518879890442,
				0.209252268075943
			],
			"min":[
				-0.18688125908374786,
				-0.22905191779136658,
				-0.628141462802887
			],
			"type":"VEC3"
		},
		{
			"bufferView":1,
			"componentType":5126,
			"count":115,
			"type":"VEC3"
		},
		{
			"bufferView":2,
			"componentType":5126,
			"count":115,
			"type":"VEC2"
		},
		{
			"bufferView":3,
			"componentType":5123,
			"count":432,
			"type":"SCALAR"
		}
	],
	"bufferViews":[
		{
			"buffer":0,
			"byteLength":1380,
			"byteOffset":0,
			"target":34962
		},
		{
			"buffer":0,
			"byteLength":1380,
			"byteOffset":1380,
			"target":34962
		},
		{
			"buffer":0,
			"byteLength":920,
			"byteOffset":2760,
			"target":34962
		},
		{
			"buffer":0,
			"byteLength":864,
			"byteOffset":3680,
			"target":34963
		}
	],
	"buffers":[
		{
			"byteLength":4544,
			"uri":"fish.bin"
		}
	]
}
