{
	"asset":{
		"generator":"Khronos glTF Blender I/O v4.3.47",
		"version":"2.0"
	},
	"scene":0,
	"scenes":[
		{
			"name":"Scene",
			"nodes":[
				0,
				1
			]
		}
	],
	"nodes":[
		{
			"mesh":0,
			"name":"SM_Cardboard_Closed.005"
		},
		{
			"mesh":1,
			"name":"SM_Cardboard_Closed.006"
		}
	],
	"materials":[
		{
			"doubleSided":true,
			"name":"M_Cardboard_Box.001",
			"pbrMetallicRoughness":{
				"baseColorFactor":[
					0.8001194596290588,
					0.3423791825771332,
					0.19522276520729065,
					1
				],
				"metallicFactor":0,
				"roughnessFactor":0.5
			}
		}
	],
	"meshes":[
		{
			"name":"SM_Cardboard_Closed-convcol.002",
			"primitives":[
				{
					"attributes":{
						"POSITION":0,
						"NORMAL":1,
						"TEXCOORD_0":2
					},
					"indices":3,
					"material":0
				}
			]
		},
		{
			"name":"SM_Cardboard_Closed-convcol.003",
			"primitives":[
				{
					"attributes":{
						"POSITION":4,
						"NORMAL":5,
						"TEXCOORD_0":6
					},
					"indices":7,
					"material":0
				}
			]
		}
	],
	"accessors":[
		{
			"bufferView":0,
			"componentType":5126,
			"count":77,
			"max":[
				3.1625001430511475,
				1.625,
				3.5
			],
			"min":[
				-3.1625001430511475,
				-1.875,
				-3.5
			],
			"type":"VEC3"
		},
		{
			"bufferView":1,
			"componentType":5126,
			"count":77,
			"type":"VEC3"
		},
		{
			"bufferView":2,
			"componentType":5126,
			"count":77,
			"type":"VEC2"
		},
		{
			"bufferView":3,
			"componentType":5123,
			"count":324,
			"type":"SCALAR"
		},
		{
			"bufferView":4,
			"componentType":5126,
			"count":153,
			"max":[
				3.1625001430511475,
				1.875,
				3.5
			],
			"min":[
				-3.1625001430511475,
				1.6304795742034912,
				-3.5
			],
			"type":"VEC3"
		},
		{
			"bufferView":5,
			"componentType":5126,
			"count":153,
			"type":"VEC3"
		},
		{
			"bufferView":6,
			"componentType":5126,
			"count":153,
			"type":"VEC2"
		},
		{
			"bufferView":7,
			"componentType":5123,
			"count":648,
			"type":"SCALAR"
		}
	],
	"bufferViews":[
		{
			"buffer":0,
			"byteLength":924,
			"byteOffset":0,
			"target":34962
		},
		{
			"buffer":0,
			"byteLength":924,
			"byteOffset":924,
			"target":34962
		},
		{
			"buffer":0,
			"byteLength":616,
			"byteOffset":1848,
			"target":34962
		},
		{
			"buffer":0,
			"byteLength":648,
			"byteOffset":2464,
			"target":34963
		},
		{
			"buffer":0,
			"byteLength":1836,
			"byteOffset":3112,
			"target":34962
		},
		{
			"buffer":0,
			"byteLength":1836,
			"byteOffset":4948,
			"target":34962
		},
		{
			"buffer":0,
			"byteLength":1224,
			"byteOffset":6784,
			"target":34962
		},
		{
			"buffer":0,
			"byteLength":1296,
			"byteOffset":8008,
			"target":34963
		}
	],
	"buffers":[
		{
			"byteLength":9304,
			"uri":"SM_Cardboard_Closed_HIGHPOLY.bin"
		}
	]
}
