{
	"asset":{
		"generator":"Khronos glTF Blender I/O v4.3.47",
		"version":"2.0"
	},
	"scene":0,
	"scenes":[
		{
			"name":"Scene",
			"nodes":[
				0,
				1,
				2
			]
		}
	],
	"nodes":[
		{
			"mesh":0,
			"name":"SM_Cardboard_Top_Flap.003"
		},
		{
			"mesh":1,
			"name":"SM_Cardboard_Ramp-convcol.003"
		},
		{
			"mesh":2,
			"name":"SM_Cardboard_Roof.003"
		}
	],
	"materials":[
		{
			"doubleSided":true,
			"name":"M_Cardboard_Box.002",
			"normalTexture":{
				"index":0,
				"scale":0.30000001192092896
			},
			"pbrMetallicRoughness":{
				"baseColorTexture":{
					"index":1
				},
				"metallicFactor":0,
				"roughnessFactor":0.5
			}
		}
	],
	"meshes":[
		{
			"name":"SM_Cardboard_Top_Flap.002",
			"primitives":[
				{
					"attributes":{
						"POSITION":0,
						"NORMAL":1,
						"TEXCOORD_0":2
					},
					"indices":3,
					"material":0
				}
			]
		},
		{
			"name":"SM_Cardboard_Ramp-convcol.002",
			"primitives":[
				{
					"attributes":{
						"POSITION":4,
						"NORMAL":5,
						"TEXCOORD_0":6
					},
					"indices":7,
					"material":0
				}
			]
		},
		{
			"name":"SM_Cardboard_Roof.002",
			"primitives":[
				{
					"attributes":{
						"POSITION":8,
						"NORMAL":9,
						"TEXCOORD_0":10
					},
					"indices":11,
					"material":0
				}
			]
		}
	],
	"textures":[
		{
			"sampler":0,
			"source":0
		},
		{
			"sampler":0,
			"source":1
		}
	],
	"images":[
		{
			"mimeType":"image/png",
			"name":"M_Cardboard_Box.001_Normal",
			"uri":"M_Cardboard_Box_001_Normal.png"
		},
		{
			"mimeType":"image/png",
			"name":"M_Cardboard_Box.001_BaseColor",
			"uri":"M_Cardboard_Box_001_BaseColor.png"
		}
	],
	"accessors":[
		{
			"bufferView":0,
			"componentType":5126,
			"count":62,
			"max":[
				-0.03863128274679184,
				5.829480171203613,
				4
			],
			"min":[
				-1.8039050102233887,
				4.759654998779297,
				-4.730880505121604e-07
			],
			"type":"VEC3"
		},
		{
			"bufferView":1,
			"componentType":5126,
			"count":62,
			"type":"VEC3"
		},
		{
			"bufferView":2,
			"componentType":5126,
			"count":62,
			"type":"VEC2"
		},
		{
			"bufferView":3,
			"componentType":5123,
			"count":324,
			"type":"SCALAR"
		},
		{
			"bufferView":4,
			"componentType":5126,
			"count":62,
			"max":[
				0.034100938588380814,
				0.9277069568634033,
				4
			],
			"min":[
				-1.804455280303955,
				0.008160779252648354,
				-4.7183834794850554e-07
			],
			"type":"VEC3"
		},
		{
			"bufferView":5,
			"componentType":5126,
			"count":62,
			"type":"VEC3"
		},
		{
			"bufferView":6,
			"componentType":5126,
			"count":62,
			"type":"VEC2"
		},
		{
			"bufferView":7,
			"componentType":5123,
			"count":324,
			"type":"SCALAR"
		},
		{
			"bufferView":8,
			"componentType":5126,
			"count":216,
			"max":[
				-1.7280924320220947,
				4.845236778259277,
				4.000001430511475
			],
			"min":[
				-5.142786026000977,
				0.8452361822128296,
				-1.771013330653659e-06
			],
			"type":"VEC3"
		},
		{
			"bufferView":9,
			"componentType":5126,
			"count":216,
			"type":"VEC3"
		},
		{
			"bufferView":10,
			"componentType":5126,
			"count":216,
			"type":"VEC2"
		},
		{
			"bufferView":11,
			"componentType":5123,
			"count":756,
			"type":"SCALAR"
		}
	],
	"bufferViews":[
		{
			"buffer":0,
			"byteLength":744,
			"byteOffset":0,
			"target":34962
		},
		{
			"buffer":0,
			"byteLength":744,
			"byteOffset":744,
			"target":34962
		},
		{
			"buffer":0,
			"byteLength":496,
			"byteOffset":1488,
			"target":34962
		},
		{
			"buffer":0,
			"byteLength":648,
			"byteOffset":1984,
			"target":34963
		},
		{
			"buffer":0,
			"byteLength":744,
			"byteOffset":2632,
			"target":34962
		},
		{
			"buffer":0,
			"byteLength":744,
			"byteOffset":3376,
			"target":34962
		},
		{
			"buffer":0,
			"byteLength":496,
			"byteOffset":4120,
			"target":34962
		},
		{
			"buffer":0,
			"byteLength":648,
			"byteOffset":4616,
			"target":34963
		},
		{
			"buffer":0,
			"byteLength":2592,
			"byteOffset":5264,
			"target":34962
		},
		{
			"buffer":0,
			"byteLength":2592,
			"byteOffset":7856,
			"target":34962
		},
		{
			"buffer":0,
			"byteLength":1728,
			"byteOffset":10448,
			"target":34962
		},
		{
			"buffer":0,
			"byteLength":1512,
			"byteOffset":12176,
			"target":34963
		}
	],
	"samplers":[
		{
			"magFilter":9729,
			"minFilter":9987
		}
	],
	"buffers":[
		{
			"byteLength":13688,
			"uri":"SM_Cardboard_Opened_HIGHPOLY.bin"
		}
	]
}
