{
	"asset":{
		"generator":"Khronos glTF Blender I/O v4.3.47",
		"version":"2.0"
	},
	"scene":0,
	"scenes":[
		{
			"name":"Scene",
			"nodes":[
				0,
				1,
				2,
				3,
				4,
				5,
				6
			]
		}
	],
	"nodes":[
		{
			"mesh":0,
			"name":"SM_Cardboard_Top_Flap"
		},
		{
			"mesh":1,
			"name":"SM_Cardboard_Ramp-convcol"
		},
		{
			"mesh":2,
			"name":"SM_Cardboard_Floor-convcol"
		},
		{
			"mesh":3,
			"name":"SM_Cardboard_Right-convcol"
		},
		{
			"mesh":4,
			"name":"SM_Cardboard_Left-convcol"
		},
		{
			"mesh":5,
			"name":"SM_Cardboard-Back_convcol"
		},
		{
			"mesh":6,
			"name":"SM_Cardboard_Roof"
		}
	],
	"materials":[
		{
			"doubleSided":true,
			"name":"M_Cardboard_Box.002",
			"normalTexture":{
				"index":0,
				"scale":0.30000001192092896
			},
			"pbrMetallicRoughness":{
				"baseColorTexture":{
					"index":1
				},
				"metallicFactor":0,
				"roughnessFactor":0.5
			}
		}
	],
	"meshes":[
		{
			"name":"SM_Cardboard_Top_Flap",
			"primitives":[
				{
					"attributes":{
						"POSITION":0,
						"NORMAL":1,
						"TEXCOORD_0":2
					},
					"indices":3,
					"material":0
				}
			]
		},
		{
			"name":"SM_Cardboard_Ramp-convcol",
			"primitives":[
				{
					"attributes":{
						"POSITION":4,
						"NORMAL":5,
						"TEXCOORD_0":6
					},
					"indices":3,
					"material":0
				}
			]
		},
		{
			"name":"SM_Cardboard_Floor-convcol",
			"primitives":[
				{
					"attributes":{
						"POSITION":7,
						"NORMAL":8,
						"TEXCOORD_0":9
					},
					"indices":10,
					"material":0
				}
			]
		},
		{
			"name":"SM_Cardboard_Right-convcol",
			"primitives":[
				{
					"attributes":{
						"POSITION":11,
						"NORMAL":12,
						"TEXCOORD_0":13
					},
					"indices":14,
					"material":0
				}
			]
		},
		{
			"name":"SM_Cardboard_Left-convcol",
			"primitives":[
				{
					"attributes":{
						"POSITION":15,
						"NORMAL":16,
						"TEXCOORD_0":17
					},
					"indices":10,
					"material":0
				}
			]
		},
		{
			"name":"SM_Cardboard-Back_convcol",
			"primitives":[
				{
					"attributes":{
						"POSITION":18,
						"NORMAL":19,
						"TEXCOORD_0":20
					},
					"indices":21,
					"material":0
				}
			]
		},
		{
			"name":"SM_Cardboard_Roof",
			"primitives":[
				{
					"attributes":{
						"POSITION":22,
						"NORMAL":23,
						"TEXCOORD_0":24
					},
					"indices":25,
					"material":0
				}
			]
		}
	],
	"textures":[
		{
			"sampler":0,
			"source":0
		},
		{
			"sampler":0,
			"source":1
		}
	],
	"images":[
		{
			"mimeType":"image/png",
			"name":"M_Cardboard_Box.001_Normal",
			"uri":"M_Cardboard_Box_001_Normal.png"
		},
		{
			"mimeType":"image/png",
			"name":"M_Cardboard_Box.001_BaseColor",
			"uri":"M_Cardboard_Box_001_BaseColor.png"
		}
	],
	"accessors":[
		{
			"bufferView":0,
			"componentType":5126,
			"count":24,
			"max":[
				-0.030242562294006348,
				5.837869167327881,
				4
			],
			"min":[
				-1.8122937679290771,
				4.751266956329346,
				-4.76837158203125e-07
			],
			"type":"VEC3"
		},
		{
			"bufferView":1,
			"componentType":5126,
			"count":24,
			"type":"VEC3"
		},
		{
			"bufferView":2,
			"componentType":5126,
			"count":24,
			"type":"VEC2"
		},
		{
			"bufferView":3,
			"componentType":5123,
			"count":36,
			"type":"SCALAR"
		},
		{
			"bufferView":4,
			"componentType":5126,
			"count":24,
			"max":[
				0.04226183891296387,
				0.9358677864074707,
				4
			],
			"min":[
				-1.812616229057312,
				-1.1920928955078125e-07,
				-4.76837158203125e-07
			],
			"type":"VEC3"
		},
		{
			"bufferView":5,
			"componentType":5126,
			"count":24,
			"type":"VEC3"
		},
		{
			"bufferView":6,
			"componentType":5126,
			"count":24,
			"type":"VEC2"
		},
		{
			"bufferView":7,
			"componentType":5126,
			"count":12,
			"max":[
				-1.7280906438827515,
				1.0036709308624268,
				3.999999523162842
			],
			"min":[
				-5.1427836418151855,
				0.8452363610267639,
				-8.344650268554688e-07
			],
			"type":"VEC3"
		},
		{
			"bufferView":8,
			"componentType":5126,
			"count":12,
			"type":"VEC3"
		},
		{
			"bufferView":9,
			"componentType":5126,
			"count":12,
			"type":"VEC2"
		},
		{
			"bufferView":10,
			"componentType":5123,
			"count":18,
			"type":"SCALAR"
		},
		{
			"bufferView":11,
			"componentType":5126,
			"count":12,
			"max":[
				-1.7280924320220947,
				4.845236778259277,
				0.15843260288238525
			],
			"min":[
				-5.14278507232666,
				0.8452365398406982,
				-2.302229404449463e-06
			],
			"type":"VEC3"
		},
		{
			"bufferView":12,
			"componentType":5126,
			"count":12,
			"type":"VEC3"
		},
		{
			"bufferView":13,
			"componentType":5126,
			"count":12,
			"type":"VEC2"
		},
		{
			"bufferView":14,
			"componentType":5123,
			"count":18,
			"type":"SCALAR"
		},
		{
			"bufferView":15,
			"componentType":5126,
			"count":12,
			"max":[
				-1.728093147277832,
				4.845236778259277,
				4.000001430511475
			],
			"min":[
				-5.142786026000977,
				0.8452365398406982,
				3.841566562652588
			],
			"type":"VEC3"
		},
		{
			"bufferView":16,
			"componentType":5126,
			"count":12,
			"type":"VEC3"
		},
		{
			"bufferView":17,
			"componentType":5126,
			"count":12,
			"type":"VEC2"
		},
		{
			"bufferView":18,
			"componentType":5126,
			"count":8,
			"max":[
				-4.723088264465332,
				4.845235824584961,
				3.9999990463256836
			],
			"min":[
				-5.142786026000977,
				0.8452361822128296,
				-8.344650268554688e-07
			],
			"type":"VEC3"
		},
		{
			"bufferView":19,
			"componentType":5126,
			"count":8,
			"type":"VEC3"
		},
		{
			"bufferView":20,
			"componentType":5126,
			"count":8,
			"type":"VEC2"
		},
		{
			"bufferView":21,
			"componentType":5123,
			"count":12,
			"type":"SCALAR"
		},
		{
			"bufferView":22,
			"componentType":5126,
			"count":12,
			"max":[
				-1.7280924320220947,
				4.845236778259277,
				3.999999523162842
			],
			"min":[
				-5.142785549163818,
				4.686802387237549,
				-8.344650268554688e-07
			],
			"type":"VEC3"
		},
		{
			"bufferView":23,
			"componentType":5126,
			"count":12,
			"type":"VEC3"
		},
		{
			"bufferView":24,
			"componentType":5126,
			"count":12,
			"type":"VEC2"
		},
		{
			"bufferView":25,
			"componentType":5123,
			"count":18,
			"type":"SCALAR"
		}
	],
	"bufferViews":[
		{
			"buffer":0,
			"byteLength":288,
			"byteOffset":0,
			"target":34962
		},
		{
			"buffer":0,
			"byteLength":288,
			"byteOffset":288,
			"target":34962
		},
		{
			"buffer":0,
			"byteLength":192,
			"byteOffset":576,
			"target":34962
		},
		{
			"buffer":0,
			"byteLength":72,
			"byteOffset":768,
			"target":34963
		},
		{
			"buffer":0,
			"byteLength":288,
			"byteOffset":840,
			"target":34962
		},
		{
			"buffer":0,
			"byteLength":288,
			"byteOffset":1128,
			"target":34962
		},
		{
			"buffer":0,
			"byteLength":192,
			"byteOffset":1416,
			"target":34962
		},
		{
			"buffer":0,
			"byteLength":144,
			"byteOffset":1608,
			"target":34962
		},
		{
			"buffer":0,
			"byteLength":144,
			"byteOffset":1752,
			"target":34962
		},
		{
			"buffer":0,
			"byteLength":96,
			"byteOffset":1896,
			"target":34962
		},
		{
			"buffer":0,
			"byteLength":36,
			"byteOffset":1992,
			"target":34963
		},
		{
			"buffer":0,
			"byteLength":144,
			"byteOffset":2028,
			"target":34962
		},
		{
			"buffer":0,
			"byteLength":144,
			"byteOffset":2172,
			"target":34962
		},
		{
			"buffer":0,
			"byteLength":96,
			"byteOffset":2316,
			"target":34962
		},
		{
			"buffer":0,
			"byteLength":36,
			"byteOffset":2412,
			"target":34963
		},
		{
			"buffer":0,
			"byteLength":144,
			"byteOffset":2448,
			"target":34962
		},
		{
			"buffer":0,
			"byteLength":144,
			"byteOffset":2592,
			"target":34962
		},
		{
			"buffer":0,
			"byteLength":96,
			"byteOffset":2736,
			"target":34962
		},
		{
			"buffer":0,
			"byteLength":96,
			"byteOffset":2832,
			"target":34962
		},
		{
			"buffer":0,
			"byteLength":96,
			"byteOffset":2928,
			"target":34962
		},
		{
			"buffer":0,
			"byteLength":64,
			"byteOffset":3024,
			"target":34962
		},
		{
			"buffer":0,
			"byteLength":24,
			"byteOffset":3088,
			"target":34963
		},
		{
			"buffer":0,
			"byteLength":144,
			"byteOffset":3112,
			"target":34962
		},
		{
			"buffer":0,
			"byteLength":144,
			"byteOffset":3256,
			"target":34962
		},
		{
			"buffer":0,
			"byteLength":96,
			"byteOffset":3400,
			"target":34962
		},
		{
			"buffer":0,
			"byteLength":36,
			"byteOffset":3496,
			"target":34963
		}
	],
	"samplers":[
		{
			"magFilter":9729,
			"minFilter":9987
		}
	],
	"buffers":[
		{
			"byteLength":3532,
			"uri":"SM_Cardboard_Box.bin"
		}
	]
}
