{
	"asset":{
		"generator":"Khronos glTF Blender I/O v4.3.47",
		"version":"2.0"
	},
	"scene":0,
	"scenes":[
		{
			"name":"Scene",
			"nodes":[
				0,
				1,
				2,
				3,
				4,
				5,
				6
			]
		}
	],
	"nodes":[
		{
			"mesh":0,
			"name":"SM_Cardboard-Back_convcol.001",
			"rotation":[
				0,
				1,
				0,
				7.549790126404332e-08
			],
			"translation":[
				19,
				0,
				2
			]
		},
		{
			"mesh":1,
			"name":"SM_Cardboard_Floor-convcol.001",
			"rotation":[
				0,
				1,
				0,
				7.549790126404332e-08
			],
			"translation":[
				19,
				0,
				2
			]
		},
		{
			"mesh":2,
			"name":"SM_Cardboard_Left-convcol.001",
			"rotation":[
				0,
				1,
				0,
				7.549790126404332e-08
			],
			"translation":[
				19,
				0,
				2
			]
		},
		{
			"mesh":3,
			"name":"SM_Cardboard_Ramp-convcol.001",
			"rotation":[
				0,
				1,
				0,
				7.549790126404332e-08
			],
			"translation":[
				19,
				0,
				2
			]
		},
		{
			"mesh":4,
			"name":"SM_Cardboard_Right-convcol.001",
			"rotation":[
				0,
				1,
				0,
				7.549790126404332e-08
			],
			"translation":[
				19,
				0,
				2
			]
		},
		{
			"mesh":5,
			"name":"SM_Cardboard_Roof.001",
			"rotation":[
				0,
				1,
				0,
				7.549790126404332e-08
			],
			"translation":[
				19,
				0,
				2
			]
		},
		{
			"mesh":6,
			"name":"SM_Cardboard_Top_Flap.001",
			"rotation":[
				0,
				1,
				0,
				7.549790126404332e-08
			],
			"translation":[
				19,
				0,
				2
			]
		}
	],
	"materials":[
		{
			"doubleSided":true,
			"name":"M_Cardboard_Box.001",
			"pbrMetallicRoughness":{
				"baseColorFactor":[
					0.8001194596290588,
					0.3423791825771332,
					0.19522276520729065,
					1
				],
				"metallicFactor":0,
				"roughnessFactor":0.5
			}
		}
	],
	"meshes":[
		{
			"name":"SM_Cardboard-Back_convcol",
			"primitives":[
				{
					"attributes":{
						"POSITION":0,
						"NORMAL":1,
						"TEXCOORD_0":2
					},
					"indices":3,
					"material":0
				}
			]
		},
		{
			"name":"SM_Cardboard_Floor-convcol",
			"primitives":[
				{
					"attributes":{
						"POSITION":4,
						"NORMAL":5,
						"TEXCOORD_0":6
					},
					"indices":7,
					"material":0
				}
			]
		},
		{
			"name":"SM_Cardboard_Left-convcol",
			"primitives":[
				{
					"attributes":{
						"POSITION":8,
						"NORMAL":9,
						"TEXCOORD_0":10
					},
					"indices":7,
					"material":0
				}
			]
		},
		{
			"name":"SM_Cardboard_Ramp-convcol",
			"primitives":[
				{
					"attributes":{
						"POSITION":11,
						"NORMAL":12,
						"TEXCOORD_0":13
					},
					"indices":14,
					"material":0
				}
			]
		},
		{
			"name":"SM_Cardboard_Right-convcol",
			"primitives":[
				{
					"attributes":{
						"POSITION":15,
						"NORMAL":16,
						"TEXCOORD_0":17
					},
					"indices":18,
					"material":0
				}
			]
		},
		{
			"name":"SM_Cardboard_Roof",
			"primitives":[
				{
					"attributes":{
						"POSITION":19,
						"NORMAL":20,
						"TEXCOORD_0":21
					},
					"indices":22,
					"material":0
				}
			]
		},
		{
			"name":"SM_Cardboard_Top_Flap",
			"primitives":[
				{
					"attributes":{
						"POSITION":23,
						"NORMAL":24,
						"TEXCOORD_0":25
					},
					"indices":14,
					"material":0
				}
			]
		}
	],
	"accessors":[
		{
			"bufferView":0,
			"componentType":5126,
			"count":8,
			"max":[
				-4.723088264465332,
				4.845235824584961,
				3.9999990463256836
			],
			"min":[
				-5.142786026000977,
				0.8452361822128296,
				-8.344650268554688e-07
			],
			"type":"VEC3"
		},
		{
			"bufferView":1,
			"componentType":5126,
			"count":8,
			"type":"VEC3"
		},
		{
			"bufferView":2,
			"componentType":5126,
			"count":8,
			"type":"VEC2"
		},
		{
			"bufferView":3,
			"componentType":5123,
			"count":12,
			"type":"SCALAR"
		},
		{
			"bufferView":4,
			"componentType":5126,
			"count":12,
			"max":[
				-1.7280906438827515,
				1.0036709308624268,
				3.999999523162842
			],
			"min":[
				-5.1427836418151855,
				0.8452363610267639,
				-8.344650268554688e-07
			],
			"type":"VEC3"
		},
		{
			"bufferView":5,
			"componentType":5126,
			"count":12,
			"type":"VEC3"
		},
		{
			"bufferView":6,
			"componentType":5126,
			"count":12,
			"type":"VEC2"
		},
		{
			"bufferView":7,
			"componentType":5123,
			"count":18,
			"type":"SCALAR"
		},
		{
			"bufferView":8,
			"componentType":5126,
			"count":12,
			"max":[
				-1.728093147277832,
				4.845236778259277,
				4.000001430511475
			],
			"min":[
				-5.142786026000977,
				0.8452365398406982,
				3.841566562652588
			],
			"type":"VEC3"
		},
		{
			"bufferView":9,
			"componentType":5126,
			"count":12,
			"type":"VEC3"
		},
		{
			"bufferView":10,
			"componentType":5126,
			"count":12,
			"type":"VEC2"
		},
		{
			"bufferView":11,
			"componentType":5126,
			"count":24,
			"max":[
				0.04226183891296387,
				0.9358677864074707,
				4
			],
			"min":[
				-1.812616229057312,
				-1.1920928955078125e-07,
				-4.76837158203125e-07
			],
			"type":"VEC3"
		},
		{
			"bufferView":12,
			"componentType":5126,
			"count":24,
			"type":"VEC3"
		},
		{
			"bufferView":13,
			"componentType":5126,
			"count":24,
			"type":"VEC2"
		},
		{
			"bufferView":14,
			"componentType":5123,
			"count":36,
			"type":"SCALAR"
		},
		{
			"bufferView":15,
			"componentType":5126,
			"count":12,
			"max":[
				-1.7280924320220947,
				4.845236778259277,
				0.15843260288238525
			],
			"min":[
				-5.14278507232666,
				0.8452365398406982,
				-2.302229404449463e-06
			],
			"type":"VEC3"
		},
		{
			"bufferView":16,
			"componentType":5126,
			"count":12,
			"type":"VEC3"
		},
		{
			"bufferView":17,
			"componentType":5126,
			"count":12,
			"type":"VEC2"
		},
		{
			"bufferView":18,
			"componentType":5123,
			"count":18,
			"type":"SCALAR"
		},
		{
			"bufferView":19,
			"componentType":5126,
			"count":12,
			"max":[
				-1.7280924320220947,
				4.845236778259277,
				3.999999523162842
			],
			"min":[
				-5.142785549163818,
				4.686802387237549,
				-8.344650268554688e-07
			],
			"type":"VEC3"
		},
		{
			"bufferView":20,
			"componentType":5126,
			"count":12,
			"type":"VEC3"
		},
		{
			"bufferView":21,
			"componentType":5126,
			"count":12,
			"type":"VEC2"
		},
		{
			"bufferView":22,
			"componentType":5123,
			"count":18,
			"type":"SCALAR"
		},
		{
			"bufferView":23,
			"componentType":5126,
			"count":24,
			"max":[
				-0.030242562294006348,
				5.837869167327881,
				4
			],
			"min":[
				-1.8122937679290771,
				4.751266956329346,
				-4.76837158203125e-07
			],
			"type":"VEC3"
		},
		{
			"bufferView":24,
			"componentType":5126,
			"count":24,
			"type":"VEC3"
		},
		{
			"bufferView":25,
			"componentType":5126,
			"count":24,
			"type":"VEC2"
		}
	],
	"bufferViews":[
		{
			"buffer":0,
			"byteLength":96,
			"byteOffset":0,
			"target":34962
		},
		{
			"buffer":0,
			"byteLength":96,
			"byteOffset":96,
			"target":34962
		},
		{
			"buffer":0,
			"byteLength":64,
			"byteOffset":192,
			"target":34962
		},
		{
			"buffer":0,
			"byteLength":24,
			"byteOffset":256,
			"target":34963
		},
		{
			"buffer":0,
			"byteLength":144,
			"byteOffset":280,
			"target":34962
		},
		{
			"buffer":0,
			"byteLength":144,
			"byteOffset":424,
			"target":34962
		},
		{
			"buffer":0,
			"byteLength":96,
			"byteOffset":568,
			"target":34962
		},
		{
			"buffer":0,
			"byteLength":36,
			"byteOffset":664,
			"target":34963
		},
		{
			"buffer":0,
			"byteLength":144,
			"byteOffset":700,
			"target":34962
		},
		{
			"buffer":0,
			"byteLength":144,
			"byteOffset":844,
			"target":34962
		},
		{
			"buffer":0,
			"byteLength":96,
			"byteOffset":988,
			"target":34962
		},
		{
			"buffer":0,
			"byteLength":288,
			"byteOffset":1084,
			"target":34962
		},
		{
			"buffer":0,
			"byteLength":288,
			"byteOffset":1372,
			"target":34962
		},
		{
			"buffer":0,
			"byteLength":192,
			"byteOffset":1660,
			"target":34962
		},
		{
			"buffer":0,
			"byteLength":72,
			"byteOffset":1852,
			"target":34963
		},
		{
			"buffer":0,
			"byteLength":144,
			"byteOffset":1924,
			"target":34962
		},
		{
			"buffer":0,
			"byteLength":144,
			"byteOffset":2068,
			"target":34962
		},
		{
			"buffer":0,
			"byteLength":96,
			"byteOffset":2212,
			"target":34962
		},
		{
			"buffer":0,
			"byteLength":36,
			"byteOffset":2308,
			"target":34963
		},
		{
			"buffer":0,
			"byteLength":144,
			"byteOffset":2344,
			"target":34962
		},
		{
			"buffer":0,
			"byteLength":144,
			"byteOffset":2488,
			"target":34962
		},
		{
			"buffer":0,
			"byteLength":96,
			"byteOffset":2632,
			"target":34962
		},
		{
			"buffer":0,
			"byteLength":36,
			"byteOffset":2728,
			"target":34963
		},
		{
			"buffer":0,
			"byteLength":288,
			"byteOffset":2764,
			"target":34962
		},
		{
			"buffer":0,
			"byteLength":288,
			"byteOffset":3052,
			"target":34962
		},
		{
			"buffer":0,
			"byteLength":192,
			"byteOffset":3340,
			"target":34962
		}
	],
	"buffers":[
		{
			"byteLength":3532,
			"uri":"SM_Cardboard_Box.bin"
		}
	]
}
